<?xml version="1.0" encoding="UTF-8"?>
<svg version="1.1" xmlns="http://www.w3.org/2000/svg" width="600" height="480">
<path d="M0 0 C198 0 396 0 600 0 C600 158.4 600 316.8 600 480 C402 480 204 480 0 480 C0 321.6 0 163.2 0 0 Z " fill="#C92376" transform="translate(0,0)"/>
<path d="M0 0 C9.65259851 6.77281774 15.76623856 15.39753904 18 27 C18.15291727 29.59005674 18.21623575 32.18676742 18.1953125 34.78125 C18.1924826 35.48020386 18.18965271 36.17915771 18.18673706 36.89929199 C18.1756727 39.09971316 18.15059606 41.29970493 18.125 43.5 C18.11495235 45.00520239 18.10582965 46.51041126 18.09765625 48.015625 C18.07577893 51.67721938 18.04134696 55.33856768 18 59 C18.58442871 59.10884521 19.16885742 59.21769043 19.77099609 59.32983398 C30.02666284 61.39507967 37.54383667 66.28336076 43.6328125 74.86328125 C49.73738952 84.40386305 50.70285215 95.89789456 48.38671875 106.91796875 C44.90614875 116.56236757 38.3414279 123.85335869 29.4921875 128.84375 C23.89740471 131.4394486 18.89200351 132.3176074 12.7578125 132.4140625 C11.60525467 132.44311172 11.60525467 132.44311172 10.42941284 132.4727478 C7.99471862 132.53214117 5.55997607 132.57876628 3.125 132.625 C1.46612614 132.66321693 -0.19272867 132.70227079 -1.8515625 132.7421875 C-5.90088542 132.83780907 -9.95030113 132.92198701 -14 133 C-14.25249512 133.81041748 -14.50499023 134.62083496 -14.76513672 135.45581055 C-15.10818848 136.52613525 -15.45124023 137.59645996 -15.8046875 138.69921875 C-16.30718018 140.28609497 -16.30718018 140.28609497 -16.81982422 141.9050293 C-20.43866264 151.39530954 -28.32630295 157.99950581 -37.44140625 162.09765625 C-47.01739791 165.40237247 -57.76363418 165.28061744 -67 161 C-77.35548759 154.96520149 -83.1994906 147.5632671 -87.18188477 136.36401367 C-88.8217819 129.62090933 -88.40792326 122.70376453 -88.25 115.8125 C-88.22988817 114.2728099 -88.21164574 112.7330942 -88.1953125 111.19335938 C-88.15172461 107.46169792 -88.08296116 103.73101842 -88 100 C-89.64560913 99.78633789 -89.64560913 99.78633789 -91.32446289 99.56835938 C-99.88542106 98.24455262 -106.90206003 93.17687214 -112.2734375 86.5234375 C-119.04772607 76.62255421 -120.41479206 66.69301656 -119 55 C-116.97134238 44.89675121 -109.56717537 37.24480786 -101.3125 31.5 C-95.29093425 27.59902332 -89.62236281 26.70803318 -82.5390625 26.8046875 C-81.74849457 26.8075174 -80.95792664 26.81034729 -80.1434021 26.81326294 C-77.63710916 26.82439045 -75.13118355 26.84948074 -72.625 26.875 C-70.91797394 26.88503942 -69.21094223 26.89416359 -67.50390625 26.90234375 C-63.3357976 26.92430537 -59.16796092 26.95878329 -55 27 C-55.01820801 26.06212646 -55.03641602 25.12425293 -55.05517578 24.15795898 C-54.93461073 17.25747688 -50.37218357 10.58497644 -45.79296875 5.59375 C-42.23322107 2.42952984 -38.21520658 0.17686725 -34 -2 C-33.35160156 -2.34289062 -32.70320313 -2.68578125 -32.03515625 -3.0390625 C-21.53419315 -7.79002678 -9.75510659 -5.29845891 0 0 Z " fill="#040102" transform="translate(335,109)"/>
<path d="M0 0 C5.67471337 4.18822057 8.96050802 9.27252164 11 16 C11.53150457 20.96094783 11.46816761 25.89720543 11.390625 30.87890625 C11.38314983 32.30093077 11.37746294 33.7229657 11.37347412 35.14500427 C11.35831772 38.85895021 11.3191252 42.57225451 11.2746582 46.28594971 C11.22622844 50.75719191 11.20812368 55.22865058 11.18484497 59.70008087 C11.14626524 66.46716466 11.06954541 73.23284504 11 80 C-4.18 80 -19.36 80 -35 80 C-35 83.63 -35 87.26 -35 91 C-30.38 91 -25.76 91 -21 91 C-21 95.62 -21 100.24 -21 105 C-17.37 105 -13.74 105 -10 105 C-10 100.38 -10 95.76 -10 91 C0.56 91 11.12 91 22 91 C22 80.77 22 70.54 22 60 C31.08488984 63.02829661 35.74918921 65.22179829 40.38671875 73.46484375 C43.76724895 81.1629634 44.01833364 87.81696849 41.109375 95.76171875 C37.59556305 102.85120554 31.5295055 108.2445363 24.18920898 111.08935547 C18.27173527 112.70018416 12.05151583 112.2436493 5.97265625 112.1953125 C4.61502797 112.19157681 3.25739697 112.18873247 1.89976501 112.18673706 C-1.65287882 112.17914431 -5.20535603 112.15953397 -8.75793457 112.1373291 C-12.39133409 112.11677613 -16.02476165 112.10760523 -19.65820312 112.09765625 C-26.772282 112.07734772 -33.88590485 112.03819079 -41 112 C-41 96.82 -41 81.64 -41 66 C-44.63 66 -48.26 66 -52 66 C-52 70.62 -52 75.24 -52 80 C-56.95 80 -61.9 80 -67 80 C-67 83.63 -67 87.26 -67 91 C-62.05 91 -57.1 91 -52 91 C-52 101.23 -52 111.46 -52 122 C-41.77 122 -31.54 122 -21 122 C-24.16287801 131.48863403 -26.49175358 136.03685625 -35 141 C-41.51321123 144.12724132 -49.50369013 144.19949481 -56.4453125 142.34765625 C-63.841622 138.96855799 -68.94120591 133.20578041 -72.14056396 125.84309387 C-73.88361373 120.07692407 -73.48352745 114.08958249 -73.390625 108.12109375 C-73.38314983 106.69906923 -73.37746294 105.2770343 -73.37347412 103.85499573 C-73.35831772 100.14104979 -73.3191252 96.42774549 -73.2746582 92.71405029 C-73.22622844 88.24280809 -73.20812368 83.77134942 -73.18484497 79.29991913 C-73.14626524 72.53283534 -73.06954541 65.76715496 -73 59 C-57.82 59 -42.64 59 -27 59 C-27 55.37 -27 51.74 -27 48 C-31.62 48 -36.24 48 -41 48 C-41 43.38 -41 38.76 -41 34 C-44.63 34 -48.26 34 -52 34 C-52 38.95 -52 43.9 -52 49 C-62.56 49 -73.12 49 -84 49 C-84 58.9 -84 68.8 -84 79 C-90.95326812 77.84112198 -94.18968138 76.00753311 -99 71 C-103.75693075 64.07375318 -106.38397315 57.40371325 -105 49 C-103.62250847 42.00759062 -99.34485276 36.57884326 -94 32 C-86.59953728 27.15217695 -79.62525198 27.47775941 -71 27.609375 C-69.55412585 27.61684758 -68.10824147 27.6225357 -66.66235352 27.62652588 C-62.88099558 27.64170259 -59.1002651 27.68091345 -55.31915283 27.7253418 C-50.76950545 27.77371555 -46.21964672 27.7918666 -41.66981506 27.81515503 C-34.77944209 27.85377148 -27.89044223 27.9304776 -21 28 C-21 43.18 -21 58.36 -21 74 C-17.37 74 -13.74 74 -10 74 C-10 69.05 -10 64.1 -10 59 C-5.38 59 -0.76 59 4 59 C4 55.7 4 52.4 4 49 C-0.62 49 -5.24 49 -10 49 C-10 38.44 -10 27.88 -10 17 C-20.23 17 -30.46 17 -41 17 C-38.62371527 8.68300345 -34.99580893 3.09565974 -27.53515625 -1.52734375 C-18.10010795 -5.71573012 -8.94766994 -5.08287805 0 0 Z " fill="#C62374" transform="translate(331,119)"/>
<path d="M0 0 C1.98 0.66 3.96 1.32 6 2 C6 4.31 6 6.62 6 9 C6.99 9 7.98 9 9 9 C9.103125 8.38125 9.20625 7.7625 9.3125 7.125 C10 5 10 5 13 3 C15.5625 3.375 15.5625 3.375 18 4 C18.66 4 19.32 4 20 4 C21.32 4 22.64 4 24 4 C24.11613204 7.10385211 24.18722029 10.20714662 24.25 13.3125 C24.28351563 14.19357422 24.31703125 15.07464844 24.3515625 15.98242188 C24.45020161 22.46794355 24.45020161 22.46794355 22.23828125 25.08203125 C18.52223909 26.6060625 16.01923993 26.38278476 12 26 C10 24.625 10 24.625 9 23 C9 22.34 9 21.68 9 21 C9.721875 21.144375 10.44375 21.28875 11.1875 21.4375 C12.115625 21.623125 13.04375 21.80875 14 22 C15.66666667 22.33333333 17.33333333 22.66666667 19 23 C19 21.35 19 19.7 19 18 C18.505 18.495 18.505 18.495 18 19 C14.625 19.375 14.625 19.375 11 19 C9.0625 16.5 9.0625 16.5 8 14 C7.34 16.31 6.68 18.62 6 21 C3.69 21 1.38 21 -1 21 C-1.33 20.01 -1.66 19.02 -2 18 C-2.515625 18.33 -3.03125 18.66 -3.5625 19 C-6.91402596 20.37498501 -9.40965387 20.38467994 -13 20 C-15.4375 18.0625 -15.4375 18.0625 -17 16 C-17 15.67 -17 15.34 -17 15 C-13.80097361 14.91113816 -11.07322544 15.08941469 -8 16 C-8 15.34 -8 14.68 -8 14 C-9.134375 13.690625 -10.26875 13.38125 -11.4375 13.0625 C-15 12 -15 12 -16 11 C-16.31303465 8.10442944 -16.15960355 6.34737243 -14.9375 3.6875 C-13 2 -13 2 -9.5625 1.5625 C-5.95853694 2.00509196 -4.56984291 2.53295081 -2 5 C-1.34 3.35 -0.68 1.7 0 0 Z " fill="#C7317C" transform="translate(126,295)"/>
<path d="M0 0 C15 0 15 0 20 3 C22 5 22 5 22.265625 7.3125 C22.26046875 8.199375 22.2553125 9.08625 22.25 10 C22.25515625 10.886875 22.2603125 11.77375 22.265625 12.6875 C22 15 22 15 20 17 C20.29665437 21.44981551 21.62800818 24.28731715 24 28 C24 28.66 24 29.32 24 30 C21.36 30 18.72 30 16 30 C15.68546875 29.36191406 15.3709375 28.72382813 15.046875 28.06640625 C14.61890625 27.24011719 14.1909375 26.41382813 13.75 25.5625 C13.33234375 24.73878906 12.9146875 23.91507812 12.484375 23.06640625 C11.01047374 20.54473322 11.01047374 20.54473322 7 20 C7 23.3 7 26.6 7 30 C4.69 30 2.38 30 0 30 C0 20.1 0 10.2 0 0 Z " fill="#050103" transform="translate(261,303)"/>
<path d="M0 0 C2.64 0 5.28 0 8 0 C8 3.63 8 7.26 8 11 C11.96 11 15.92 11 20 11 C20 7.37 20 3.74 20 0 C22.31 0 24.62 0 27 0 C27 9.9 27 19.8 27 30 C24.36 30 21.72 30 19 30 C19 26.04 19 22.08 19 18 C15.37 18 11.74 18 8 18 C8 21.96 8 25.92 8 30 C5.36 30 2.72 30 0 30 C0 20.1 0 10.2 0 0 Z " fill="#0B0206" transform="translate(380,303)"/>
<path d="M0 0 C2.64 0 5.28 0 8 0 C10.91958841 6.82098531 13.68962152 13.68513698 16.3125 20.625 C16.57885254 21.32367188 16.84520508 22.02234375 17.11962891 22.7421875 C19 27.75980282 19 27.75980282 19 30 C16.36 30 13.72 30 11 30 C10.505 27.525 10.505 27.525 10 25 C6.37 25.33 2.74 25.66 -1 26 C-1.33 27.32 -1.66 28.64 -2 30 C-4.64 30 -7.28 30 -10 30 C-9.33808577 23.91866297 -7.11943599 18.44135258 -5 12.75 C-4.63132813 11.74453125 -4.26265625 10.7390625 -3.8828125 9.703125 C-1.17426658 2.34853316 -1.17426658 2.34853316 0 0 Z " fill="#0B0207" transform="translate(170,303)"/>
<path d="M0 0 C6.27 0 12.54 0 19 0 C19 2.31 19 4.62 19 7 C15.04 7 11.08 7 7 7 C7 8.32 7 9.64 7 11 C10.63 11 14.26 11 18 11 C18 13.31 18 15.62 18 18 C14.37 18 10.74 18 7 18 C7 19.65 7 21.3 7 23 C10.96 23 14.92 23 19 23 C19 25.31 19 27.62 19 30 C12.73 30 6.46 30 0 30 C0 20.1 0 10.2 0 0 Z " fill="#090306" transform="translate(230,303)"/>
<path d="M0 0 C5.94 0 11.88 0 18 0 C18 2.31 18 4.62 18 7 C14.37 7 10.74 7 7 7 C7 8.32 7 9.64 7 11 C10.3 11 13.6 11 17 11 C17 13.31 17 15.62 17 18 C13.7 18 10.4 18 7 18 C7 19.65 7 21.3 7 23 C10.96 23 14.92 23 19 23 C19 25.31 19 27.62 19 30 C12.73 30 6.46 30 0 30 C0 20.1 0 10.2 0 0 Z " fill="#060104" transform="translate(421,303)"/>
<path d="M0 0 C2.27677176 1.46219342 3.34776031 2.79701375 5 5 C3.5625 7.125 3.5625 7.125 1 9 C-2.12820109 8.75232831 -5.01503209 7.94396421 -8 7 C-8 7.99 -8 8.98 -8 10 C-7.40832031 10.15855469 -6.81664062 10.31710937 -6.20703125 10.48046875 C-0.99266964 12.02010897 2.70093335 13.42387529 6 18 C6.73807041 21.9363755 6.36136708 23.43925798 4.1875 26.8125 C1.24336752 29.75663248 -1.2913899 30.19443202 -5.3125 30.375 C-8.81771181 30.34636265 -10.80312972 29.87528644 -13.5625 27.6875 C-16 25 -16 25 -16 22 C-14.02 21.34 -12.04 20.68 -10 20 C-9.34 20.66 -8.68 21.32 -8 22 C-4.91652174 22.16681109 -4.91652174 22.16681109 -2 22 C-2 21.34 -2 20.68 -2 20 C-2.60328125 19.75765625 -3.2065625 19.5153125 -3.828125 19.265625 C-12.74785802 15.5250918 -12.74785802 15.5250918 -15 12 C-15.60415596 9.18835112 -15.6385594 6.80736024 -15 4 C-11.27613757 -0.96514991 -5.75144345 -1.14086009 0 0 Z " fill="#060103" transform="translate(363,303)"/>
<path d="M0 0 C12.78378378 0 12.78378378 0 17 4 C19.27534028 7.56140218 19.36147391 10.90265689 18.64453125 15.0625 C17.76122321 17.71777751 16.34906686 19.51398405 14.09765625 21.16796875 C9.58361751 22.95845339 4.7588798 22.26438221 0 22 C0 14.74 0 7.48 0 0 Z " fill="#CD3883" transform="translate(537,167)"/>
<path d="M0 0 C11.16564417 -0.49079755 11.16564417 -0.49079755 15.1875 1.875 C18.42777921 5.67394804 18.32806735 8.65797827 18.29296875 13.515625 C17.88537873 16.97198834 16.53723498 18.68663869 14 21 C11.23547967 22.38226016 8.9538637 22.09525387 5.875 22.0625 C2.966875 22.0315625 2.966875 22.0315625 0 22 C0 14.74 0 7.48 0 0 Z " fill="#CD3883" transform="translate(70,51)"/>
<path d="M0 0 C12.55555556 0 12.55555556 0 16 3 C18.82368571 7.23552856 18.66653757 11.02477314 18 16 C16.20353146 18.93423195 15.0558929 20.47205355 12 22 C9.95944995 22.07065617 7.91665743 22.08421976 5.875 22.0625 C2.966875 22.0315625 2.966875 22.0315625 0 22 C0 14.74 0 7.48 0 0 Z " fill="#CD3883" transform="translate(395,51)"/>
<path d="M0 0 C11.16564417 -0.49079755 11.16564417 -0.49079755 15.1875 1.875 C18.41191456 5.6553481 18.38736833 8.67277922 18.359375 13.515625 C18 16 18 16 15.625 19.0625 C9.65951875 23.46559331 9.93428887 22 0 22 C0 14.74 0 7.48 0 0 Z " fill="#CD3883" transform="translate(70,293)"/>
<path d="M0 0 C12.52941176 0 12.52941176 0 17 4 C18.84995114 7.69990228 18.46986842 11.96167141 18 16 C15.89495409 19.55680172 14.91593192 20.69468936 11 22 C7.37 22 3.74 22 0 22 C0 14.74 0 7.48 0 0 Z " fill="#CD3883" transform="translate(214,409)"/>
<path d="M0 0 C2.475 0.495 2.475 0.495 5 1 C5 7.27 5 13.54 5 20 C2.69 20 0.38 20 -2 20 C-2.33 19.34 -2.66 18.68 -3 18 C-3.99 18.66 -4.98 19.32 -6 20 C-9.04336198 20.47414698 -11.95604286 20.47614972 -15 20 C-17.0625 18.125 -17.0625 18.125 -18 16 C-18 15.34 -18 14.68 -18 14 C-16.35 14 -14.7 14 -13 14 C-13 14.66 -13 15.32 -13 16 C-11.02463255 15.65213292 -11.02463255 15.65213292 -9 15 C-8.67 14.34 -8.34 13.68 -8 13 C-9.11375 12.87625 -10.2275 12.7525 -11.375 12.625 C-15 12 -15 12 -17 10 C-17.375 7.5625 -17.375 7.5625 -17 5 C-15.19838554 2.8230492 -13.82520089 2.10437324 -11.0234375 1.75 C-8.875 1.6875 -8.875 1.6875 -5 2 C-4.34 2.66 -3.68 3.32 -3 4 C-2.01 2.68 -1.02 1.36 0 0 Z " fill="#BD2471" transform="translate(452,54)"/>
<path d="M0 0 C0.33 0 0.66 0 1 0 C1 7.92 1 15.84 1 24 C-1.31 24 -3.62 24 -6 24 C-6.33 23.34 -6.66 22.68 -7 22 C-7.7734375 22.2475 -7.7734375 22.2475 -8.5625 22.5 C-12.83452707 23.37631325 -16.55800865 23.81343102 -20.4375 21.625 C-22 20 -22 20 -22 18 C-18.80097361 17.91113816 -16.07322544 18.08941469 -13 19 C-12.67 18.34 -12.34 17.68 -12 17 C-13.11375 16.87625 -14.2275 16.7525 -15.375 16.625 C-19 16 -19 16 -21 14 C-21.375 11.5625 -21.375 11.5625 -21 9 C-19.19838554 6.8230492 -17.82520089 6.10437324 -15.0234375 5.75 C-12.875 5.6875 -12.875 5.6875 -9 6 C-8.34 6.66 -7.68 7.32 -7 8 C-6.5875 7.34 -6.175 6.68 -5.75 6 C-4.88375 5.01 -4.88375 5.01 -4 4 C-2.68 4 -1.36 4 0 4 C0 2.68 0 1.36 0 0 Z " fill="#BE2571" transform="translate(131,50)"/>
<path d="M0 0 C7.59 0 15.18 0 23 0 C23 2.31 23 4.62 23 7 C20.36 7 17.72 7 15 7 C15 14.59 15 22.18 15 30 C12.69 30 10.38 30 8 30 C8 22.41 8 14.82 8 7 C5.36 7 2.72 7 0 7 C0 4.69 0 2.38 0 0 Z " fill="#060103" transform="translate(294,303)"/>
<path d="M0 0 C2.64 0 5.28 0 8 0 C8 7.59 8 15.18 8 23 C11.63 23 15.26 23 19 23 C19 25.31 19 27.62 19 30 C12.73 30 6.46 30 0 30 C0 20.1 0 10.2 0 0 Z " fill="#000000" transform="translate(199,303)"/>
<path d="M0 0 C1.7325 0.061875 1.7325 0.061875 3.5 0.125 C4.16 0.125 4.82 0.125 5.5 0.125 C6.82 0.125 8.14 0.125 9.5 0.125 C9.61613204 3.22885211 9.68722029 6.33214662 9.75 9.4375 C9.78351563 10.31857422 9.81703125 11.19964844 9.8515625 12.10742188 C9.9501867 18.59196298 9.9501867 18.59196298 7.73828125 21.2109375 C4.06244626 22.71206383 1.4697606 22.44006036 -2.5 22.125 C-3.49 21.465 -4.48 20.805 -5.5 20.125 C-5.5 19.135 -5.5 18.145 -5.5 17.125 C-2.53 17.455 0.44 17.785 3.5 18.125 C3.5 17.135 3.5 16.145 3.5 15.125 C2.406875 15.2075 1.31375 15.29 0.1875 15.375 C-3.5 15.125 -3.5 15.125 -5.5 13.6875 C-7.01083733 9.81597933 -6.52453895 6.11530961 -5.5 2.125 C-3.5 0.125 -3.5 0.125 0 0 Z " fill="#CE3984" transform="translate(465.5,298.875)"/>
<path d="M0 0 C0.66 0 1.32 0 2 0 C3.32 0 4.64 0 6 0 C6.08710289 3.10398978 6.14042309 6.20766548 6.1875 9.3125 C6.21263672 10.19357422 6.23777344 11.07464844 6.26367188 11.98242188 C6.27333984 12.82998047 6.28300781 13.67753906 6.29296875 14.55078125 C6.3086792 15.33106689 6.32438965 16.11135254 6.34057617 16.9152832 C5.91231982 19.53670329 5.07960339 20.39875878 3 22 C0.84375 22.36328125 0.84375 22.36328125 -1.5 22.3125 C-2.2734375 22.30863281 -3.046875 22.30476563 -3.84375 22.30078125 C-6 22 -6 22 -9 20 C-9 19.34 -9 18.68 -9 18 C-5.7 18 -2.4 18 1 18 C1.33 16.68 1.66 15.36 2 14 C1.01 14.66 0.02 15.32 -1 16 C-4.34570822 15.86059549 -6.30963609 15.55674509 -8.9375 13.4375 C-10.51980105 9.80751523 -10.03083586 6.76374955 -9 3 C-6.771828 -0.75271074 -4.08161601 -0.26052868 0 0 Z " fill="#CE3984" transform="translate(288,415)"/>
<path d="M0 0 C1.134375 0.103125 2.26875 0.20625 3.4375 0.3125 C4.0975 0.3125 4.7575 0.3125 5.4375 0.3125 C6.7575 0.3125 8.0775 0.3125 9.4375 0.3125 C9.52460289 3.41648978 9.57792309 6.52016548 9.625 9.625 C9.65013672 10.50607422 9.67527344 11.38714844 9.70117188 12.29492188 C9.71083984 13.14248047 9.72050781 13.99003906 9.73046875 14.86328125 C9.7461792 15.64356689 9.76188965 16.42385254 9.77807617 17.2277832 C9.34981982 19.84920329 8.51710339 20.71125878 6.4375 22.3125 C4.28125 22.67578125 4.28125 22.67578125 1.9375 22.625 C1.1640625 22.62113281 0.390625 22.61726563 -0.40625 22.61328125 C-2.5625 22.3125 -2.5625 22.3125 -5.5625 20.3125 C-5.5625 19.6525 -5.5625 18.9925 -5.5625 18.3125 C-3.625 17.75 -3.625 17.75 -1.5625 17.3125 C-1.2325 17.6425 -0.9025 17.9725 -0.5625 18.3125 C1.10367115 18.35313832 2.77138095 18.355221 4.4375 18.3125 C4.4375 16.9925 4.4375 15.6725 4.4375 14.3125 C4.1075 14.6425 3.7775 14.9725 3.4375 15.3125 C0.0625 15.625 0.0625 15.625 -3.5625 15.3125 C-6.1750869 13.12129809 -6.50730862 11.74483248 -6.9375 8.375 C-6.30082302 3.17547132 -5.54232415 0.48616879 0 0 Z " fill="#CE3984" transform="translate(140.5625,56.6875)"/>
<path d="M0 0 C1.7325 0.061875 1.7325 0.061875 3.5 0.125 C4.16 0.125 4.82 0.125 5.5 0.125 C6.82 0.125 8.14 0.125 9.5 0.125 C9.61613204 3.22885211 9.68722029 6.33214662 9.75 9.4375 C9.78351563 10.31857422 9.81703125 11.19964844 9.8515625 12.10742188 C9.9501867 18.59196298 9.9501867 18.59196298 7.73828125 21.2109375 C4.06244626 22.71206383 1.4697606 22.44006036 -2.5 22.125 C-3.49 21.465 -4.48 20.805 -5.5 20.125 C-5.5 19.465 -5.5 18.805 -5.5 18.125 C-3.5625 17.5625 -3.5625 17.5625 -1.5 17.125 C-1.17 17.455 -0.84 17.785 -0.5 18.125 C1.16617115 18.16563832 2.83388095 18.167721 4.5 18.125 C4.5 16.805 4.5 15.485 4.5 14.125 C4.17 14.455 3.84 14.785 3.5 15.125 C0.125 15.5 0.125 15.5 -3.5 15.125 C-5.76935287 12.85564713 -6.48872095 11.30478834 -6.51953125 8.08203125 C-6.00704706 2.77346864 -5.72762126 0.2045579 0 0 Z " fill="#CE3984" transform="translate(465.5,56.875)"/>
<path d="M0 0 C11.16564417 -0.49079755 11.16564417 -0.49079755 15.1875 1.875 C18.41136778 5.65470705 18.38430006 8.67038575 18.36328125 13.51171875 C18 16 18 16 15.5625 19.125 C13 21 13 21 12 21 C12 17.37 12 13.74 12 10 C9.69 10 7.38 10 5 10 C5 13.63 5 17.26 5 21 C3.35 21 1.7 21 0 21 C0 14.07 0 7.14 0 0 Z " fill="#C93881" transform="translate(395,293)"/>
<path d="M0 0 C2.97 0.495 2.97 0.495 6 1 C7.67225729 0.69595322 9.34080104 0.36871088 11 0 C11.66 0.33 12.32 0.66 13 1 C13 1.66 13 2.32 13 3 C13.66 3 14.32 3 15 3 C15 2.34 15 1.68 15 1 C17.8125 0.3125 17.8125 0.3125 21 0 C22.6875 1.03125 22.6875 1.03125 24 3 C24.29296875 6.35546875 24.29296875 6.35546875 24.1875 10.1875 C24.16042969 11.45980469 24.13335938 12.73210937 24.10546875 14.04296875 C24.07066406 15.01878906 24.03585937 15.99460937 24 17 C22.68 17 21.36 17 20 17 C19.67 13.04 19.34 9.08 19 5 C17.68 5 16.36 5 15 5 C14.67 8.96 14.34 12.92 14 17 C12.68 17 11.36 17 10 17 C9.67 13.04 9.34 9.08 9 5 C8.01 5 7.02 5 6 5 C5.67 8.96 5.34 12.92 5 17 C3.35 17 1.7 17 0 17 C0 11.39 0 5.78 0 0 Z " fill="#CD3883" transform="translate(542,298)"/>
<path d="M0 0 C4.29 0 8.58 0 13 0 C13 0.66 13 1.32 13 2 C13.99 1.34 14.98 0.68 16 0 C19.0625 -0.25 19.0625 -0.25 22 0 C24 2 24 2 24.1953125 5.2578125 C24.17210937 6.53398438 24.14890625 7.81015625 24.125 9.125 C24.10695313 10.40632813 24.08890625 11.68765625 24.0703125 13.0078125 C24.04710937 13.99523437 24.02390625 14.98265625 24 16 C22.68 16 21.36 16 20 16 C19.505 9.565 19.505 9.565 19 3 C17.35 3.33 15.7 3.66 14 4 C14 7.96 14 11.92 14 16 C12.68 16 11.36 16 10 16 C9.67 12.04 9.34 8.08 9 4 C8.01 4 7.02 4 6 4 C5.67 7.96 5.34 11.92 5 16 C3.35 16 1.7 16 0 16 C0 10.72 0 5.44 0 0 Z " fill="#CD3883" transform="translate(542,57)"/>
<path d="M0 0 C2.93242251 0.66099688 4.23554873 1.99324815 5.90625 4.4296875 C5.90625 5.4196875 5.90625 6.4096875 5.90625 7.4296875 C3.43125 6.9346875 3.43125 6.9346875 0.90625 6.4296875 C0.90625 16.6596875 0.90625 26.8896875 0.90625 37.4296875 C-9.65375 37.4296875 -20.21375 37.4296875 -31.09375 37.4296875 C-31.09375 37.0996875 -31.09375 36.7696875 -31.09375 36.4296875 C-20.86375 36.4296875 -10.63375 36.4296875 -0.09375 36.4296875 C-0.09375 30.1596875 -0.09375 23.8896875 -0.09375 17.4296875 C-2.07375 17.0996875 -4.05375 16.7696875 -6.09375 16.4296875 C-8.92222039 13.82451741 -9.9603352 12.2301763 -10.59375 8.4296875 C-9.50729087 1.91093269 -6.33223718 -0.40167176 0 0 Z " fill="#22131B" transform="translate(352.09375,172.5703125)"/>
<path d="M0 0 C2.475 0.495 2.475 0.495 5 1 C5.33 0.67 5.66 0.34 6 0 C7.99952758 -0.04346799 10.00039988 -0.039992 12 0 C14.02126284 0 16.04291874 -0.04256811 18.0625 -0.125 C21 0 21 0 23 2 C23.1953125 5.2578125 23.1953125 5.2578125 23.125 9.125 C23.10695313 10.40632812 23.08890625 11.68765625 23.0703125 13.0078125 C23.04710938 13.99523437 23.02390625 14.98265625 23 16 C21.68 16 20.36 16 19 16 C18.67 12.04 18.34 8.08 18 4 C17.01 4 16.02 4 15 4 C14.67 7.96 14.34 11.92 14 16 C12.35 16 10.7 16 9 16 C8.67 12.04 8.34 8.08 8 4 C7.01 4.33 6.02 4.66 5 5 C4.67 8.63 4.34 12.26 4 16 C2.68 16 1.36 16 0 16 C0 10.72 0 5.44 0 0 Z " fill="#CD3883" transform="translate(37,173)"/>
<path d="M0 0 C0.33 0.99 0.66 1.98 1 3 C2.670625 2.9690625 2.670625 2.9690625 4.375 2.9375 C8 3 8 3 10 4 C10.30859375 6.00390625 10.30859375 6.00390625 10.4375 8.5625 C10.82483147 13.54759954 12.04637011 17.41321677 14 22 C11.28817788 24.60334924 10.10866187 24.99456691 6.25 25.1875 C5.1775 25.125625 4.105 25.06375 3 25 C-1.08777892 16.99476628 -0.26866484 8.75648355 0 0 Z " fill="#1C181A" transform="translate(216,164)"/>
<path d="M0 0 C2.37536547 0 4.75153255 -0.0300613 7.125 -0.125 C10 0 10 0 12 2 C12.1953125 5.2578125 12.1953125 5.2578125 12.125 9.125 C12.10695312 10.40632813 12.08890625 11.68765625 12.0703125 13.0078125 C12.04710937 13.99523437 12.02390625 14.98265625 12 16 C10.68 16 9.36 16 8 16 C7.67 12.04 7.34 8.08 7 4 C5.68 4.33 4.36 4.66 3 5 C2.67 8.63 2.34 12.26 2 16 C0.68 16 -0.64 16 -2 16 C-2.33 12.04 -2.66 8.08 -3 4 C-3.99 4 -4.98 4 -6 4 C-6.33 7.96 -6.66 11.92 -7 16 C-8.32 16 -9.64 16 -11 16 C-11 10.72 -11 5.44 -11 0 C-3.4673913 -1.07608696 -3.4673913 -1.07608696 0 0 Z " fill="#CE3984" transform="translate(229,57)"/>
<path d="M0 0 C5 0 10 0 15 0 C16.546875 -0.061875 16.546875 -0.061875 18.125 -0.125 C21 0 21 0 23 2 C23.1953125 5.2578125 23.1953125 5.2578125 23.125 9.125 C23.10695313 10.40632813 23.08890625 11.68765625 23.0703125 13.0078125 C23.04710937 13.99523437 23.02390625 14.98265625 23 16 C21.68 16 20.36 16 19 16 C18.505 9.565 18.505 9.565 18 3 C16.02 3.99 16.02 3.99 14 5 C13.29626983 7.64787088 13.29626983 7.64787088 13.25 10.625 C13.19328125 11.62789063 13.1365625 12.63078125 13.078125 13.6640625 C13.05234375 14.43492187 13.0265625 15.20578125 13 16 C11.68 16 10.36 16 9 16 C8.67 12.04 8.34 8.08 8 4 C7.01 4 6.02 4 5 4 C4.67 7.96 4.34 11.92 4 16 C2.68 16 1.36 16 0 16 C0 10.72 0 5.44 0 0 Z " fill="#CE3984" transform="translate(362,415)"/>
<path d="M0 0 C2.16409761 1.80341467 2.84211548 3.1456693 3.3515625 5.90234375 C3.62772889 9.80501087 3.47358887 11.44283662 0.875 14.5 C-2.49037356 16.25584708 -4.26015491 16.63656938 -8 16 C-11.21983624 13.82443497 -11.91057891 12.30738498 -13 8.5625 C-13 5 -13 5 -11.25 2.125 C-7.5200942 -1.39768881 -4.79008311 -1.29731417 0 0 Z " fill="#CD3883" transform="translate(536,299)"/>
<path d="M0 0 C1.98 0.66 3.96 1.32 6 2 C6 8.27 6 14.54 6 21 C3.69 21 1.38 21 -1 21 C-2.23921302 18.02588876 -3.30058404 15.14737182 -4 12 C-6.31 11.34 -8.62 10.68 -11 10 C-11 10.99 -11 11.98 -11 13 C-9.02 13.495 -9.02 13.495 -7 14 C-7.33 14.99 -7.66 15.98 -8 17 C-9.32 16.67 -10.64 16.34 -12 16 C-12 13.03 -12 10.06 -12 7 C-7.70600835 5.92650209 -6.80504787 6.20317184 -3 8 C-3.99 6.35 -4.98 4.7 -6 3 C-4.68 3.66 -3.36 4.32 -2 5 C-1.34 3.35 -0.68 1.7 0 0 Z " fill="#BE2471" transform="translate(451,295)"/>
<path d="M0 0 C1.9375 1.0625 1.9375 1.0625 3 3 C4.03608129 6.99631356 4.42696428 9.1072565 2.625 12.875 C1 15 1 15 0 16 C-7.03846154 16.57692308 -7.03846154 16.57692308 -10.5 14.5 C-12.62153384 10.96411027 -12.791013 8.02098277 -12 4 C-8.99732176 -1.00446374 -5.31746703 -0.59082967 0 0 Z " fill="#CE3984" transform="translate(30,173)"/>
<path d="M0 0 C1.94140625 0.33984375 1.94140625 0.33984375 4.44140625 1.83984375 C6.56294009 5.37573348 6.73241925 8.31886098 5.94140625 12.33984375 C4.44140625 14.83984375 4.44140625 14.83984375 1.94140625 16.33984375 C-0.96756948 16.84906083 -3.03986331 16.67525824 -6.05859375 16.33984375 C-7.78125 15.125 -7.78125 15.125 -9.05859375 13.33984375 C-9.45703125 10.96484375 -9.45703125 10.96484375 -9.43359375 8.33984375 C-9.44132812 7.47359375 -9.4490625 6.60734375 -9.45703125 5.71484375 C-9.05859375 3.33984375 -9.05859375 3.33984375 -7.78125 1.5546875 C-5.31624679 -0.18367077 -2.94508838 -0.13559339 0 0 Z " fill="#CE3984" transform="translate(352.05859375,414.66015625)"/>
<path d="M0 0 C2.4395583 1.77422422 2.8366175 2.97781205 3.3046875 5.90625 C3.5294052 9.44885838 3.34460456 11.44863271 1.4375 14.5 C-1.94888329 16.58392818 -4.09385318 16.55802097 -8 16 C-10.4375 14.5625 -10.4375 14.5625 -12 12 C-12.60618242 8.1838061 -13.07373929 4.50794735 -10.75390625 1.25 C-7.50213703 -1.06751926 -3.81041399 -0.61732964 0 0 Z " fill="#CE3984" transform="translate(211,57)"/>
<path d="M0 0 C2.4395583 1.77422422 2.8366175 2.97781205 3.3046875 5.90625 C3.5294052 9.44885838 3.34460456 11.44863271 1.4375 14.5 C-1.9238388 16.56851618 -4.11959911 16.48505011 -8 16 C-10.19140625 14.78515625 -10.19140625 14.78515625 -12 13 C-12.49609375 10.625 -12.49609375 10.625 -12.4375 8 C-12.43621094 7.13375 -12.43492187 6.2675 -12.43359375 5.375 C-11.2274814 -1.23145323 -5.54951993 -0.89908423 0 0 Z " fill="#CE3984" transform="translate(536,57)"/>
<path d="M0 0 C1.02480469 0.08378906 2.04960937 0.16757812 3.10546875 0.25390625 C4.46611879 0.35712798 5.82679746 0.45997265 7.1875 0.5625 C7.86103516 0.61857422 8.53457031 0.67464844 9.22851562 0.73242188 C12.21092185 0.95064672 14.75830387 1.05963014 17.67578125 0.33984375 C20 0 20 0 22.79296875 0.92578125 C25 3 25 3 25.48828125 6.79296875 C25.45512197 8.25860885 25.39558979 9.72384139 25.3125 11.1875 C25.28994141 11.93708984 25.26738281 12.68667969 25.24414062 13.45898438 C25.18529157 15.3068447 25.09560938 17.15367667 25 19 C22.69 19 20.38 19 18 19 C17.67 15.37 17.34 11.74 17 8 C16.67 11.63 16.34 15.26 16 19 C13.69 19 11.38 19 9 19 C9 15.04 9 11.08 9 7 C9.33 7 9.66 7 10 7 C10 10.63 10 14.26 10 18 C11.32 18 12.64 18 14 18 C13.97679687 17.22914063 13.95359375 16.45828125 13.9296875 15.6640625 C13.91164063 14.66117187 13.89359375 13.65828125 13.875 12.625 C13.85179687 11.62726563 13.82859375 10.62953125 13.8046875 9.6015625 C14 7 14 7 16 5 C16.99 5 17.98 5 19 5 C20.32229189 7.64458379 20.09677194 9.67761301 20.0625 12.625 C20.05347656 13.62789063 20.04445313 14.63078125 20.03515625 15.6640625 C20.02355469 16.43492187 20.01195312 17.20578125 20 18 C21.32 18 22.64 18 24 18 C23.85973717 15.68715544 23.71264442 13.37472409 23.5625 11.0625 C23.48128906 9.77472656 23.40007812 8.48695313 23.31640625 7.16015625 C23.35080812 4.13976043 23.35080812 4.13976043 22 3 C20.00049364 2.95556653 17.99961564 2.96079185 16 3 C12.49064814 3 9.43515002 2.62457273 6 2 C5.67 2.66 5.34 3.32 5 4 C5 3.34 5 2.68 5 2 C3.68 2 2.36 2 1 2 C1 7.28 1 12.56 1 18 C2.32 18 3.64 18 5 18 C5 14.37 5 10.74 5 7 C5.33 7 5.66 7 6 7 C6 10.96 6 14.92 6 19 C3.69 19 1.38 19 -1 19 C-1.33 17.68 -1.66 16.36 -2 15 C-2.99 15.495 -2.99 15.495 -4 16 C-3.67 12.7 -3.34 9.4 -3 6 C-2.67 6 -2.34 6 -2 6 C-1.34 4.02 -0.68 2.04 0 0 Z " fill="#BD2672" transform="translate(361,413)"/>
<path d="M0 0 C5.94 0 11.88 0 18 0 C18 3.63 18 7.26 18 11 C15.69 11 13.38 11 11 11 C10.67 10.34 10.34 9.68 10 9 C9.278125 9.495 8.55625 9.99 7.8125 10.5 C5 12 5 12 0 12 C0 8.04 0 4.08 0 0 Z " fill="#BF2672" transform="translate(258,179)"/>
<path d="M0 0 C1.11375 0.2475 1.11375 0.2475 2.25 0.5 C5.21685813 1.03942875 7.08135532 0.59869634 10 0 C10.9590625 0.2475 10.9590625 0.2475 11.9375 0.5 C14.15970979 1.1934601 14.15970979 1.1934601 17.0625 0.375 C20 0 20 0 21.875 1.3125 C23 3 23 3 23 5 C19.37 5 15.74 5 12 5 C12 8.96 12 12.92 12 17 C11.01 17 10.02 17 9 17 C8.67 13.04 8.34 9.08 8 5 C7.01 5 6.02 5 5 5 C4.67 8.96 4.34 12.92 4 17 C2.35 17 0.7 17 -1 17 C-1.02684679 14.35409986 -1.04676357 11.70846904 -1.0625 9.0625 C-1.07087891 8.30775391 -1.07925781 7.55300781 -1.08789062 6.77539062 C-1.09652441 4.85005687 -1.05224333 2.92464419 -1 1 C-0.67 0.67 -0.34 0.34 0 0 Z " fill="#CB3781" transform="translate(218,298)"/>
<path d="M0 0 C2.6702106 3.29325975 3 4.68141026 3 9 C-0.63 9 -4.26 9 -8 9 C-7.01 10.485 -7.01 10.485 -6 12 C-1.545 11.505 -1.545 11.505 3 11 C1 15 1 15 -1.0234375 15.71484375 C-7.20070734 16.29973475 -7.20070734 16.29973475 -10.5 15.0625 C-12.78746756 11.9172321 -13.33113519 8.86073523 -13 5 C-9.64607014 -0.62981084 -6.25983789 -1.82578605 0 0 Z " fill="#CD3883" transform="translate(104,299)"/>
<path d="M0 0 C2.375 2.3125 2.375 2.3125 4 5 C4 6.32 4 7.64 4 9 C0.37 9 -3.26 9 -7 9 C-7 9.99 -7 10.98 -7 12 C-3.50765756 12.09978121 -0.40562852 11.77842938 3 11 C2.625 12.9375 2.625 12.9375 2 15 C-1.13871188 16.56935594 -3.53855822 16.35201103 -7 16 C-10.38677089 13.54999553 -11.78698584 12.13607554 -12.5625 8 C-11.87642343 4.34092496 -10.57265686 2.64832324 -8 0 C-4.99733781 -1.5013311 -3.18669322 -0.8922741 0 0 Z " fill="#CB3681" transform="translate(428,57)"/>
<path d="M0 0 C2.7682485 1.81368005 2.97690674 2.89293126 3.6875 6.1875 C3.790625 7.115625 3.89375 8.04375 4 9 C0.37 9 -3.26 9 -7 9 C-6.01 10.485 -6.01 10.485 -5 12 C-2.36 11.67 0.28 11.34 3 11 C2.625 12.9375 2.625 12.9375 2 15 C-1.05693322 16.52846661 -3.62984547 16.23242445 -7 16 C-9.375 15 -9.375 15 -11 13 C-11.90481741 10.28554777 -12.25036984 7.85421621 -12 5 C-8.56419335 -0.56837629 -6.27573452 -1.53691458 0 0 Z " fill="#CD3883" transform="translate(103,57)"/>
<path d="M0 0 C1.9375 1.125 1.9375 1.125 3 3 C3.6875 6.1875 3.6875 6.1875 4 9 C0.37 9 -3.26 9 -7 9 C-6.67 9.99 -6.34 10.98 -6 12 C-2.80097361 12.08886184 -0.07322544 11.91058531 3 11 C2.625 12.9375 2.625 12.9375 2 15 C-1.11549872 16.55774936 -4.6044388 16.56480622 -8 16 C-9.73046875 14.796875 -9.73046875 14.796875 -11 13 C-11.3984375 10.625 -11.3984375 10.625 -11.375 8 C-11.38273438 7.13375 -11.39046875 6.2675 -11.3984375 5.375 C-11 3 -11 3 -9.7265625 1.2109375 C-6.69910396 -0.91239315 -3.5453108 -0.53290684 0 0 Z " fill="#CC3682" transform="translate(247,415)"/>
<path d="M0 0 C5.94 0 11.88 0 18 0 C18 2.31 18 4.62 18 7 C14.37 7 10.74 7 7 7 C7 8.32 7 9.64 7 11 C10.3 11 13.6 11 17 11 C17 11.33 17 11.66 17 12 C11.39 12 5.78 12 0 12 C0 8.04 0 4.08 0 0 Z " fill="#0D090B" transform="translate(421,303)"/>
<path d="M0 0 C2.4375 2.25 2.4375 2.25 4 5 C4 6.32 4 7.64 4 9 C0.37 9 -3.26 9 -7 9 C-6.67 9.99 -6.34 10.98 -6 12 C-3.03 12 -0.06 12 3 12 C2.34 13.32 1.68 14.64 1 16 C-0.43655854 16.08131463 -1.8744483 16.13933559 -3.3125 16.1875 C-4.51326172 16.23970703 -4.51326172 16.23970703 -5.73828125 16.29296875 C-8 16 -8 16 -9.765625 14.80078125 C-11.38748506 12.43471326 -11.43325471 10.85283257 -11.4375 8 C-11.45683594 7.13375 -11.47617187 6.2675 -11.49609375 5.375 C-11 3 -11 3 -9.19140625 1.21875 C-5.92828914 -0.59603171 -3.66226695 -0.52318099 0 0 Z " fill="#CC3682" transform="translate(570,173)"/>
<path d="M0 0 C0 5.28 0 10.56 0 16 C-8 16 -8 16 -10.5625 14 C-12.46864792 10.02195217 -12.38644534 7.15933601 -11 3 C-7.69727438 -1.06489307 -5.69447087 0 0 0 Z " fill="#CB3681" transform="translate(247,173)"/>
<path d="M0 0 C1.32 0 2.64 0 4 0 C4.33 0.66 4.66 1.32 5 2 C5.66 1.34 6.32 0.68 7 0 C10 0.1875 10 0.1875 13 1 C15.42130331 4.63195496 15.21022785 6.38349348 15.125 10.6875 C15.10695313 11.86699219 15.08890625 13.04648437 15.0703125 14.26171875 C15.03550781 15.61716797 15.03550781 15.61716797 15 17 C13.35 17 11.7 17 10 17 C9.67 13.04 9.34 9.08 9 5 C7.35 5 5.7 5 4 5 C4 8.96 4 12.92 4 17 C2.68 17 1.36 17 0 17 C0 11.39 0 5.78 0 0 Z " fill="#CD3883" transform="translate(479,298)"/>
<path d="M0 0 C3 0.1875 3 0.1875 6 1 C8.42130331 4.63195496 8.21022785 6.38349348 8.125 10.6875 C8.10695312 11.86699219 8.08890625 13.04648438 8.0703125 14.26171875 C8.03550781 15.61716797 8.03550781 15.61716797 8 17 C6.35 17 4.7 17 3 17 C2.67 13.04 2.34 9.08 2 5 C0.68 5.33 -0.64 5.66 -2 6 C-2.33 9.63 -2.66 13.26 -3 17 C-4.32 17 -5.64 17 -7 17 C-7 11.72 -7 6.44 -7 1 C-4.525 1.495 -4.525 1.495 -2 2 C-1.34 1.34 -0.68 0.68 0 0 Z " fill="#CD3883" transform="translate(161,56)"/>
<path d="M0 0 C3 0.1875 3 0.1875 6 1 C8.42130331 4.63195496 8.21022785 6.38349348 8.125 10.6875 C8.10695313 11.86699219 8.08890625 13.04648438 8.0703125 14.26171875 C8.03550781 15.61716797 8.03550781 15.61716797 8 17 C6.35 17 4.7 17 3 17 C2.67 13.04 2.34 9.08 2 5 C0.68 5.33 -0.64 5.66 -2 6 C-2.33 9.63 -2.66 13.26 -3 17 C-4.32 17 -5.64 17 -7 17 C-7 11.72 -7 6.44 -7 1 C-4.525 1.495 -4.525 1.495 -2 2 C-1.34 1.34 -0.68 0.68 0 0 Z " fill="#CD3883" transform="translate(486,56)"/>
<path d="M0 0 C2.475 0.495 2.475 0.495 5 1 C5.33 0.67 5.66 0.34 6 0 C9.4375 -0.25 9.4375 -0.25 13 0 C15.42130331 3.63195496 15.21022785 5.38349348 15.125 9.6875 C15.10695313 10.86699219 15.08890625 12.04648437 15.0703125 13.26171875 C15.03550781 14.61716797 15.03550781 14.61716797 15 16 C13.35 16 11.7 16 10 16 C9.67 12.04 9.34 8.08 9 4 C7.68 4.33 6.36 4.66 5 5 C4.67 8.63 4.34 12.26 4 16 C2.68 16 1.36 16 0 16 C0 10.72 0 5.44 0 0 Z " fill="#CD3883" transform="translate(298,415)"/>
<path d="M0 0 C1.32 0 2.64 0 4 0 C4.33 0.66 4.66 1.32 5 2 C5.66 1.34 6.32 0.68 7 0 C10 0.1875 10 0.1875 13 1 C15.31323995 4.46985992 15.03975162 5.98288704 14.42578125 9.9921875 C13.89999623 12.47157739 13.07459989 14.70752024 12 17 C11.34 17 10.68 17 10 17 C9.67 13.04 9.34 9.08 9 5 C7.68 5.33 6.36 5.66 5 6 C4.67 9.63 4.34 13.26 4 17 C2.68 17 1.36 17 0 17 C0 11.39 0 5.78 0 0 Z " fill="#CC3882" transform="translate(154,298)"/>
<path d="M0 0 C0.66 1.32 1.32 2.64 2 4 C-0.97 3.67 -3.94 3.34 -7 3 C-6.67 3.66 -6.34 4.32 -6 5 C-3.67793475 5.70491267 -1.34406932 6.37212429 1 7 C2 8 2 8 2.25 10.9375 C2.1675 11.948125 2.085 12.95875 2 14 C-1.78760623 16.52507082 -4.55391578 16.62059926 -9 16 C-11 14.625 -11 14.625 -12 13 C-12 12.34 -12 11.68 -12 11 C-10.35 11 -8.7 11 -7 11 C-7 11.66 -7 12.32 -7 13 C-5.02463255 12.65213292 -5.02463255 12.65213292 -3 12 C-2.67 11.34 -2.34 10.68 -2 10 C-3.11375 9.87625 -4.2275 9.7525 -5.375 9.625 C-9 9 -9 9 -11 7 C-11.375 4.5625 -11.375 4.5625 -11 2 C-7.77249703 -1.87300356 -4.58344705 -1.27317974 0 0 Z " fill="#CD3883" transform="translate(446,57)"/>
<path d="M0 0 C1.4375 2.0625 1.4375 2.0625 2 4 C-0.64 3.67 -3.28 3.34 -6 3 C-6 3.66 -6 4.32 -6 5 C-5.15115234 5.25523438 -5.15115234 5.25523438 -4.28515625 5.515625 C-3.55167969 5.75796875 -2.81820312 6.0003125 -2.0625 6.25 C-0.96615234 6.59804688 -0.96615234 6.59804688 0.15234375 6.953125 C2 8 2 8 2.84765625 9.96875 C3 12 3 12 1.5 14.25 C-1.88319316 16.61823521 -3.94868323 16.5064146 -8 16 C-10.4375 14.625 -10.4375 14.625 -12 13 C-12 12.34 -12 11.68 -12 11 C-8.80097361 10.91113816 -6.07322544 11.08941469 -3 12 C-2.67 11.34 -2.34 10.68 -2 10 C-3.11375 9.87625 -4.2275 9.7525 -5.375 9.625 C-9 9 -9 9 -11 7 C-11.375 4.5625 -11.375 4.5625 -11 2 C-7.77249703 -1.87300356 -4.58344705 -1.27317974 0 0 Z " fill="#CD3883" transform="translate(121,57)"/>
<path d="M0 0 C3 0 6 0 9 0 C10.546875 -0.061875 10.546875 -0.061875 12.125 -0.125 C15 0 15 0 17 2 C17.1953125 5.2578125 17.1953125 5.2578125 17.125 9.125 C17.10695313 10.40632812 17.08890625 11.68765625 17.0703125 13.0078125 C17.04710937 13.99523437 17.02390625 14.98265625 17 16 C13.71627904 15.70761389 12.36550665 15.41816439 10.15625 12.890625 C9.6096875 12.01921875 9.063125 11.1478125 8.5 10.25 C5.93864754 6.33791244 3.4519566 3.13814237 0 0 Z " fill="#CC3983" transform="translate(368,173)"/>
<path d="M0 0 C1.21816406 0.03480469 1.21816406 0.03480469 2.4609375 0.0703125 C3.68683594 0.09738281 3.68683594 0.09738281 4.9375 0.125 C5.87722656 0.15980469 5.87722656 0.15980469 6.8359375 0.1953125 C7.4959375 1.5153125 8.1559375 2.8353125 8.8359375 4.1953125 C5.8659375 3.8653125 2.8959375 3.5353125 -0.1640625 3.1953125 C0.6309218 5.3534773 0.6309218 5.3534773 2.6484375 5.87109375 C3.3703125 6.08121094 4.0921875 6.29132813 4.8359375 6.5078125 C7.01171875 7.27734375 7.01171875 7.27734375 8.8359375 8.1953125 C10.0234375 10.6953125 10.0234375 10.6953125 9.8359375 13.1953125 C8.22896798 15.32773555 7.33008315 16.10400298 4.6796875 16.59375 C3.90625 16.58601563 3.1328125 16.57828125 2.3359375 16.5703125 C1.5625 16.57804687 0.7890625 16.58578125 -0.0078125 16.59375 C-2.64652076 16.1061626 -3.55563502 15.30895117 -5.1640625 13.1953125 C-5.1640625 12.5353125 -5.1640625 11.8753125 -5.1640625 11.1953125 C-3.5140625 11.1953125 -1.8640625 11.1953125 -0.1640625 11.1953125 C-0.1640625 11.8553125 -0.1640625 12.5153125 -0.1640625 13.1953125 C1.4859375 13.1953125 3.1359375 13.1953125 4.8359375 13.1953125 C4.8359375 12.2053125 4.8359375 11.2153125 4.8359375 10.1953125 C3.7221875 10.0715625 2.6084375 9.9478125 1.4609375 9.8203125 C-2.1640625 9.1953125 -2.1640625 9.1953125 -4.1640625 7.1953125 C-4.4140625 4.6953125 -4.4140625 4.6953125 -4.1640625 2.1953125 C-2.1640625 0.1953125 -2.1640625 0.1953125 0 0 Z " fill="#CD3883" transform="translate(258.1640625,414.8046875)"/>
<path d="M0 0 C1.375 2.0625 1.375 2.0625 2 4 C-0.64 3.67 -3.28 3.34 -6 3 C-6 3.66 -6 4.32 -6 5 C-4.88625 5.28875 -3.7725 5.5775 -2.625 5.875 C1 7 1 7 3 9 C2.8125 11.5 2.8125 11.5 2 14 C-1.7205836 16.48038907 -3.59796571 16.46337203 -8 16 C-10.4375 14.0625 -10.4375 14.0625 -12 12 C-12 11.67 -12 11.34 -12 11 C-8.80097361 10.91113816 -6.07322544 11.08941469 -3 12 C-3 11.34 -3 10.68 -3 10 C-4.134375 9.690625 -5.26875 9.38125 -6.4375 9.0625 C-10 8 -10 8 -11 7 C-11.375 4.625 -11.375 4.625 -11 2 C-7.33706775 -1.23199905 -4.59024551 -1.53008184 0 0 Z " fill="#CE3984" transform="translate(121,299)"/>
<path d="M0 0 C1.19109375 0.00773438 1.19109375 0.00773438 2.40625 0.015625 C3.2003125 0.01046875 3.994375 0.0053125 4.8125 0 C6.90625 0.265625 6.90625 0.265625 8.90625 2.265625 C8.90625 3.255625 8.90625 4.245625 8.90625 5.265625 C7.58625 5.265625 6.26625 5.265625 4.90625 5.265625 C4.90625 4.605625 4.90625 3.945625 4.90625 3.265625 C2.92625 4.255625 2.92625 4.255625 0.90625 5.265625 C1.47214844 5.42417969 2.03804687 5.58273438 2.62109375 5.74609375 C4.83381716 6.44996535 6.85466871 7.17518368 8.90625 8.265625 C10.09375 10.765625 10.09375 10.765625 9.90625 13.265625 C8.6875 14.91015625 8.6875 14.91015625 6.90625 16.265625 C4.64453125 16.55859375 4.64453125 16.55859375 2.21875 16.453125 C1.41050781 16.42605469 0.60226562 16.39898437 -0.23046875 16.37109375 C-0.84535156 16.33628906 -1.46023438 16.30148438 -2.09375 16.265625 C-2.75375 14.945625 -3.41375 13.625625 -4.09375 12.265625 C-1.12375 12.595625 1.84625 12.925625 4.90625 13.265625 C4.90625 12.275625 4.90625 11.285625 4.90625 10.265625 C3.7925 10.141875 2.67875 10.018125 1.53125 9.890625 C-2.09375 9.265625 -2.09375 9.265625 -4.09375 7.265625 C-4.34375 4.765625 -4.34375 4.765625 -4.09375 2.265625 C-2.09375 0.265625 -2.09375 0.265625 0 0 Z " fill="#CD3883" transform="translate(581.09375,172.734375)"/>
<path d="M0 0 C2.64 0 5.28 0 8 0 C8 7.59 8 15.18 8 23 C7.67 23 7.34 23 7 23 C7 19.37 7 15.74 7 12 C5.35 11.67 3.7 11.34 2 11 C1.67 16.94 1.34 22.88 1 29 C6.94 29 12.88 29 19 29 C19 29.33 19 29.66 19 30 C12.73 30 6.46 30 0 30 C0 20.1 0 10.2 0 0 Z " fill="#391426" transform="translate(199,303)"/>
<path d="M0 0 C1.9375 1.4375 1.9375 1.4375 3 3 C3 3.66 3 4.32 3 5 C2.36191406 4.91621094 1.72382812 4.83242188 1.06640625 4.74609375 C0.24011719 4.64425781 -0.58617187 4.54242188 -1.4375 4.4375 C-2.26121094 4.33308594 -3.08492187 4.22867187 -3.93359375 4.12109375 C-4.95646484 4.06115234 -4.95646484 4.06115234 -6 4 C-7.41577477 5.18424326 -7.41577477 5.18424326 -7.0625 8.5625 C-7.041875 9.696875 -7.02125 10.83125 -7 12 C-6.0925 11.67 -5.185 11.34 -4.25 11 C-1 10 -1 10 3 10 C1.25 14.875 1.25 14.875 -1 16 C-4.7621596 16.34834811 -7.14128053 16.50642431 -10.4375 14.5625 C-12.75364638 10.76401993 -12.90388217 7.32911985 -12 3 C-8.4155313 -1.56205107 -5.39619856 -1.49894405 0 0 Z " fill="#CD3883" transform="translate(518,299)"/>
<path d="M0 0 C4.57722635 1.35621521 4.57722635 1.35621521 6.375 4 C6.375 4.66 6.375 5.32 6.375 6 C5.73691406 5.91621094 5.09882813 5.83242188 4.44140625 5.74609375 C3.61511719 5.64425781 2.78882813 5.54242188 1.9375 5.4375 C1.11378906 5.33308594 0.29007813 5.22867187 -0.55859375 5.12109375 C-1.58146484 5.06115234 -1.58146484 5.06115234 -2.625 5 C-4.04077477 6.18424326 -4.04077477 6.18424326 -3.6875 9.5625 C-3.666875 10.696875 -3.64625 11.83125 -3.625 13 C-2.7175 12.67 -1.81 12.34 -0.875 12 C2.375 11 2.375 11 6.375 11 C4.625 15.875 4.625 15.875 2.375 17 C-1.09848974 17.25729554 -3.79155709 17.32055497 -7.0625 16.0625 C-9.26213999 13.15897521 -9.24576879 10.81368329 -9.0703125 7.234375 C-8.625 5 -8.625 5 -6.5625 1.875 C-3.625 0 -3.625 0 0 0 Z " fill="#CD3883" transform="translate(189.625,298)"/>
<path d="M0 0 C2 1.3125 2 1.3125 3 3 C3 3.99 3 4.98 3 6 C1.68 6 0.36 6 -1 6 C-1.33 5.34 -1.66 4.68 -2 4 C-3.32 4 -4.64 4 -6 4 C-7.01540112 8.10223585 -7.01540112 8.10223585 -6 12 C-5.443125 11.855625 -4.88625 11.71125 -4.3125 11.5625 C-1.88615805 10.97230872 0.54906345 10.476571 3 10 C1.125 14.875 1.125 14.875 0 16 C-7.03846154 16.57692308 -7.03846154 16.57692308 -10.5 14.5 C-12.62153384 10.96411027 -12.791013 8.02098277 -12 4 C-8.99732176 -1.00446374 -5.31746703 -0.59082967 0 0 Z " fill="#CE3984" transform="translate(337,415)"/>
<path d="M0 0 C3.9375 0.5 3.9375 0.5 5.9375 1.8125 C6.9375 3.5 6.9375 3.5 6.9375 6.5 C5.6175 6.5 4.2975 6.5 2.9375 6.5 C2.6075 5.84 2.2775 5.18 1.9375 4.5 C0.6175 4.5 -0.7025 4.5 -2.0625 4.5 C-2.0625 7.47 -2.0625 10.44 -2.0625 13.5 C-0.7425 13.17 0.5775 12.84 1.9375 12.5 C2.2675 11.84 2.5975 11.18 2.9375 10.5 C4.2575 10.5 5.5775 10.5 6.9375 10.5 C6.36405063 13.36724686 6.0760485 14.3614515 3.9375 16.5 C0.93002622 16.83955349 -1.16142278 17.05613536 -4.0625 16.5 C-7.06243115 13.95005852 -7.91730459 12.37117244 -8.5625 8.5 C-7.66914104 3.13984624 -5.53919283 0.22442402 0 0 Z " fill="#CD3883" transform="translate(8.0625,172.5)"/>
<path d="M0 0 C2.09765625 0.3984375 2.09765625 0.3984375 4.16015625 2.2734375 C5.09765625 4.3984375 5.09765625 4.3984375 5.09765625 6.3984375 C3.44765625 6.0684375 1.79765625 5.7384375 0.09765625 5.3984375 C0.09765625 4.7384375 0.09765625 4.0784375 0.09765625 3.3984375 C-1.55234375 4.0584375 -3.20234375 4.7184375 -4.90234375 5.3984375 C-4.57234375 7.7084375 -4.24234375 10.0184375 -3.90234375 12.3984375 C-3.34546875 12.2540625 -2.78859375 12.1096875 -2.21484375 11.9609375 C0.2114982 11.37074622 2.6467197 10.8750085 5.09765625 10.3984375 C3.34765625 15.2734375 3.34765625 15.2734375 1.09765625 16.3984375 C-2.70111974 16.75017602 -5.04594528 16.92545194 -8.33984375 14.8984375 C-10.55343903 11.35668506 -10.55239621 8.4654324 -9.90234375 4.3984375 C-8.09186609 -0.42950292 -4.62531566 -0.1955418 0 0 Z " fill="#CE3984" transform="translate(515.90234375,56.6015625)"/>
<path d="M0 0 C2.6421531 0.53130253 3.57224949 1.27590074 5.15625 3.43359375 C5.15625 4.42359375 5.15625 5.41359375 5.15625 6.43359375 C3.83625 6.43359375 2.51625 6.43359375 1.15625 6.43359375 C0.82625 5.77359375 0.49625 5.11359375 0.15625 4.43359375 C-1.49375 4.76359375 -3.14375 5.09359375 -4.84375 5.43359375 C-4.51375 7.74359375 -4.18375 10.05359375 -3.84375 12.43359375 C-3.286875 12.28921875 -2.73 12.14484375 -2.15625 11.99609375 C0.27009195 11.40590247 2.70531345 10.91016475 5.15625 10.43359375 C3.40625 15.30859375 3.40625 15.30859375 1.15625 16.43359375 C-2.64252599 16.78533227 -4.98735153 16.96060819 -8.28125 14.93359375 C-10.49484528 11.39184131 -10.49380246 8.50058865 -9.84375 4.43359375 C-8.01772195 -0.43581437 -4.62316545 -0.00770528 0 0 Z " fill="#CE3984" transform="translate(190.84375,56.56640625)"/>
<path d="M0 0 C2.31 0 4.62 0 7 0 C7 9.9 7 19.8 7 30 C4.36 30 1.72 30 -1 30 C-1 26.04 -1 22.08 -1 18 C-0.67 18 -0.34 18 0 18 C0 21.63 0 25.26 0 29 C1.98 29 3.96 29 6 29 C6 23.39 6 17.78 6 12 C2.37 12 -1.26 12 -5 12 C-5 11.67 -5 11.34 -5 11 C-3.35 11 -1.7 11 0 11 C0 7.37 0 3.74 0 0 Z " fill="#430D28" transform="translate(400,303)"/>
<path d="M0 0 C2.16409761 1.80341467 2.84211548 3.1456693 3.3515625 5.90234375 C3.50583687 8.08248422 3.48104358 9.86591577 3 12 C0.625 14.5 0.625 14.5 -2 16 C-2.66 16 -3.32 16 -4 16 C-4 12.04 -4 8.08 -4 4 C-6.64 4 -9.28 4 -12 4 C-8.60319401 -1.01433265 -5.83275147 -1.57970352 0 0 Z " fill="#CE3984" transform="translate(211,299)"/>
<path d="M0 0 C4.05766511 0.15028389 6.3008948 0.40844945 9.4375 3.0625 C10.2109375 4.0215625 10.2109375 4.0215625 11 5 C11.99 3.68 12.98 2.36 14 1 C14.99 1.33 15.98 1.66 17 2 C16.01 2.66 15.02 3.32 14 4 C13.74969023 6.58380177 13.74969023 6.58380177 14 9 C16.64 9.99 19.28 10.98 22 12 C22 12.99 22 13.98 22 15 C20.35 15 18.7 15 17 15 C17 14.34 17 13.68 17 13 C15.35 13 13.7 13 12 13 C11.67 13.66 11.34 14.32 11 15 C10.01 15.495 10.01 15.495 9 16 C9 15.01 9 14.02 9 13 C8.443125 13.33 7.88625 13.66 7.3125 14 C4.69715478 15.1309601 2.8193354 15.15662974 0 15 C-0.33 13.68 -0.66 12.36 -1 11 C2.63 11 6.26 11 10 11 C8.48134786 6.70111387 8.48134786 6.70111387 6 3 C4.65252916 2.76924918 3.29622435 2.58846937 1.9375 2.4375 C0.638125 2.293125 -0.66125 2.14875 -2 2 C-1.34 1.34 -0.68 0.68 0 0 Z " fill="#BC2370" transform="translate(241,413)"/>
<path d="M0 0 C4.95 0 9.9 0 15 0 C15 3.96 15 7.92 15 12 C16.32 12 17.64 12 19 12 C19.33 11.34 19.66 10.68 20 10 C21 11 21 11 21.0625 14.5625 C21.041875 15.696875 21.02125 16.83125 21 18 C20.34 18.33 19.68 18.66 19 19 C19 18.01 19 17.02 19 16 C17.68 16 16.36 16 15 16 C14.67 16.99 14.34 17.98 14 19 C12.35 18.67 10.7 18.34 9 18 C8.67 16.02 8.34 14.04 8 12 C5.36 12 2.72 12 0 12 C0 11.67 0 11.34 0 11 C4.62 11 9.24 11 14 11 C14 7.7 14 4.4 14 1 C9.38 1 4.76 1 0 1 C0 0.67 0 0.34 0 0 Z " fill="#A62063" transform="translate(321,167)"/>
<path d="M0 0 C6.75 0.75 6.75 0.75 9 3 C9.46376812 10.30434783 9.46376812 10.30434783 7 14 C4.69 14 2.38 14 0 14 C0 9.38 0 4.76 0 0 Z " fill="#C42374" transform="translate(542,171)"/>
<path d="M0 0 C6 0 6 0 7.875 1.0625 C9.64796631 4.11594197 9.36343372 6.54737962 9 10 C7.875 12.4375 7.875 12.4375 6 14 C4.02 14 2.04 14 0 14 C0 9.38 0 4.76 0 0 Z " fill="#C32373" transform="translate(75,55)"/>
<path d="M0 0 C6 0 6 0 7.875 1.0625 C9.66830867 4.15097604 9.42841969 6.51143969 9 10 C7.3125 12.4375 7.3125 12.4375 5 14 C3.35 14 1.7 14 0 14 C0 9.38 0 4.76 0 0 Z " fill="#C42374" transform="translate(75,297)"/>
<path d="M0 0 C3.375 0.3125 3.375 0.3125 7 1 C9.32579101 4.48868651 9.41865457 5.89718519 9 10 C7.875 12.375 7.875 12.375 6 14 C4.02 14 2.04 14 0 14 C0 9.38 0 4.76 0 0 Z " fill="#C42373" transform="translate(219,413)"/>
<path d="M0 0 C3.375 0.3125 3.375 0.3125 7 1 C9.32579101 4.48868651 9.41865457 5.89718519 9 10 C7.875 12.375 7.875 12.375 6 14 C4.02 14 2.04 14 0 14 C0 9.38 0 4.76 0 0 Z " fill="#C42374" transform="translate(400,55)"/>
<path d="M0 0 C3.96 0 7.92 0 12 0 C12 0.66 12 1.32 12 2 C9.69 2.66 7.38 3.32 5 4 C5 3.34 5 2.68 5 2 C3.68 2 2.36 2 1 2 C1 7.28 1 12.56 1 18 C2.32 18 3.64 18 5 18 C4.97679687 17.22914063 4.95359375 16.45828125 4.9296875 15.6640625 C4.91164063 14.66117187 4.89359375 13.65828125 4.875 12.625 C4.85179687 11.62726563 4.82859375 10.62953125 4.8046875 9.6015625 C5 7 5 7 7 5 C8.32 5.33 9.64 5.66 11 6 C11 9.96 11 13.92 11 18 C12.65 18 14.3 18 16 18 C16 13.71 16 9.42 16 5 C16.33 5 16.66 5 17 5 C17 9.62 17 14.24 17 19 C14.69 19 12.38 19 10 19 C9.67 15.04 9.34 11.08 9 7 C8.67 7 8.34 7 8 7 C7.67 10.96 7.34 14.92 7 19 C4.69 19 2.38 19 0 19 C0 12.73 0 6.46 0 0 Z " fill="#BC2470" transform="translate(297,413)"/>
<path d="M0 0 C6.75 0.75 6.75 0.75 9 3 C8.8125 5.5 8.8125 5.5 8 8 C4.87656337 10.08229108 4.46147078 10.23770457 0.98828125 9.9765625 C0.23095703 9.925 -0.52636719 9.8734375 -1.30664062 9.8203125 C-2.48516602 9.72363281 -2.48516602 9.72363281 -3.6875 9.625 C-4.48478516 9.56828125 -5.28207031 9.5115625 -6.10351562 9.453125 C-8.06973581 9.31183972 -10.03498824 9.15720094 -12 9 C-12 7.68 -12 6.36 -12 5 C-10.25008666 4.97284617 -8.50005055 4.95353449 -6.75 4.9375 C-5.28820312 4.92009766 -5.28820312 4.92009766 -3.796875 4.90234375 C-1.34241322 4.98804423 0.66168914 5.29293934 3 6 C3 5.34 3 4.68 3 4 C2.01 3.67 1.02 3.34 0 3 C0 2.01 0 1.02 0 0 Z " fill="#CD3883" transform="translate(440,305)"/>
<path d="M0 0 C4.44495921 0.59835989 5.96389334 2.45013031 9.25 5.4375 C9.91 5.4375 10.57 5.4375 11.25 5.4375 C11.435625 6.22125 11.62125 7.005 11.8125 7.8125 C13.08961627 10.83126342 13.08961627 10.83126342 16.875 11.75 C17.98875 11.976875 19.1025 12.20375 20.25 12.4375 C19.92 13.4275 19.59 14.4175 19.25 15.4375 C17.93 15.4375 16.61 15.4375 15.25 15.4375 C15.25 14.7775 15.25 14.1175 15.25 13.4375 C13.6 13.4375 11.95 13.4375 10.25 13.4375 C9.92 14.0975 9.59 14.7575 9.25 15.4375 C8.26 15.9325 8.26 15.9325 7.25 16.4375 C7.25 15.4475 7.25 14.4575 7.25 13.4375 C6.528125 13.788125 5.80625 14.13875 5.0625 14.5 C1.9377295 15.54159017 0.36838004 15.32846572 -2.75 14.4375 C-2.75 13.4475 -2.75 12.4575 -2.75 11.4375 C0.88 11.4375 4.51 11.4375 8.25 11.4375 C6.32608351 6.12338506 6.32608351 6.12338506 2.25 2.4375 C-0.08199388 2.35844936 -2.41832622 2.34951231 -4.75 2.4375 C-2.75 0.4375 -2.75 0.4375 0 0 Z " fill="#BD2370" transform="translate(423.75,54.5625)"/>
<path d="M0 0 C0.66 0.33 1.32 0.66 2 1 C1.67 1.33 1.34 1.66 1 2 C0.66656449 4.45792029 0.66656449 4.45792029 1 7 C3.91765 8.9451 5.62537285 9.45276317 9 10 C9 10.99 9 11.98 9 13 C7.35 13 5.7 13 4 13 C4 12.34 4 11.68 4 11 C2.35 11 0.7 11 -1 11 C-1 11.66 -1 12.32 -1 13 C-1.66 13 -2.32 13 -3 13 C-3.33 13.99 -3.66 14.98 -4 16 C-4.66 15.67 -5.32 15.34 -6 15 C-5.34 14.01 -4.68 13.02 -4 12 C-8.455 12.495 -8.455 12.495 -13 13 C-13.33 11.68 -13.66 10.36 -14 9 C-10.37 9 -6.74 9 -3 9 C-2.67 7.35 -2.34 5.7 -2 4 C-0.9375 1.6875 -0.9375 1.6875 0 0 Z " fill="#BD2471" transform="translate(577,173)"/>
<path d="M0 0 C2.31 0.33 4.62 0.66 7 1 C7.22151549 2.79008467 7.42682213 4.58218162 7.625 6.375 C7.74101562 7.37273437 7.85703125 8.37046875 7.9765625 9.3984375 C7.98429688 10.25695312 7.99203125 11.11546875 8 12 C7.34 12.66 6.68 13.32 6 14 C4.02 14 2.04 14 0 14 C0 9.38 0 4.76 0 0 Z " fill="#000000" transform="translate(219,171)"/>
<path d="M0 0 C1.19109375 0.00773438 1.19109375 0.00773438 2.40625 0.015625 C3.2003125 0.01046875 3.994375 0.0053125 4.8125 0 C6.90625 0.265625 6.90625 0.265625 8.90625 2.265625 C8.90625 3.255625 8.90625 4.245625 8.90625 5.265625 C5.93625 5.265625 2.96625 5.265625 -0.09375 5.265625 C-0.09375 8.895625 -0.09375 12.525625 -0.09375 16.265625 C-1.41375 15.935625 -2.73375 15.605625 -4.09375 15.265625 C-4.42375 13.945625 -4.75375 12.625625 -5.09375 11.265625 C-3.77375 11.265625 -2.45375 11.265625 -1.09375 11.265625 C-1.58875 10.894375 -2.08375 10.523125 -2.59375 10.140625 C-4.72703708 7.47401615 -4.44705461 5.58668837 -4.09375 2.265625 C-2.09375 0.265625 -2.09375 0.265625 0 0 Z " fill="#171516" transform="translate(258.09375,172.734375)"/>
<path d="M0 0 C0.99 0 1.98 0 3 0 C3.03738281 0.97839844 3.07476562 1.95679688 3.11328125 2.96484375 C3.48856382 10.44841967 4.16997558 16.98646123 7 24 C4.69 24 2.38 24 0 24 C0 16.08 0 8.16 0 0 Z " fill="#B6296F" transform="translate(213,166)"/>
<path d="M0 0 C5.98304748 1.69668511 10.05535202 2.91013163 14 8 C14 8.99 14 9.98 14 11 C11.69 11 9.38 11 7 11 C6.67 9.68 6.34 8.36 6 7 C4.02 7.99 2.04 8.98 0 10 C0 6.7 0 3.4 0 0 Z " fill="#B7236D" transform="translate(353,179)"/>
<path d="M0 0 C0.33 0 0.66 0 1 0 C1.185625 1.11375 1.37125 2.2275 1.5625 3.375 C2.036875 4.57125 2.51125 5.7675 3 7 C6.51400668 8.54086322 6.51400668 8.54086322 10 9 C9.67 9.99 9.34 10.98 9 12 C6.03 11.34 3.06 10.68 0 10 C-0.33 10.66 -0.66 11.32 -1 12 C-1.33 11.67 -1.66 11.34 -2 11 C-5.20049657 10.82700019 -7.92954549 11.0902357 -11 12 C-11.66 10.68 -12.32 9.36 -13 8 C-9.37 8 -5.74 8 -2 8 C-2.33 5.69 -2.66 3.38 -3 1 C-2.34 1.33 -1.68 1.66 -1 2 C-0.67 1.34 -0.34 0.68 0 0 Z " fill="#BD2270" transform="translate(109,58)"/>
<path d="M0 0 C1.8125 1.5 1.8125 1.5 3 3 C3 3.33 3 3.66 3 4 C-0.63 4 -4.26 4 -8 4 C-8 7.63 -8 11.26 -8 15 C-11 13 -11 13 -11.9375 9.1875 C-12.24843536 5.83427549 -12.0653725 5.10973241 -10.25 2.0625 C-6.74957925 -1.14621902 -4.41631371 -1.32489411 0 0 Z " fill="#CC3782" transform="translate(428,299)"/>
<path d="M0 0 C0.33 1.32 0.66 2.64 1 4 C1.66 3.67 2.32 3.34 3 3 C3 2.01 3 1.02 3 0 C3.99 0.66 4.98 1.32 6 2 C7.98799818 2.70164642 9.98698517 3.37372872 12 4 C11.67 4.99 11.34 5.98 11 7 C8.36 6.67 5.72 6.34 3 6 C3.66 7.32 4.32 8.64 5 10 C4.01 9.67 3.02 9.34 2 9 C2 8.34 2 7.68 2 7 C0.02 7.99 0.02 7.99 -2 9 C-1.67 8.01 -1.34 7.02 -1 6 C-3.64 6.33 -6.28 6.66 -9 7 C-9.66 5.68 -10.32 4.36 -11 3 C-7.37 3 -3.74 3 0 3 C0 2.01 0 1.02 0 0 Z " fill="#BB236F" transform="translate(107,305)"/>
<path d="M0 0 C4.62 0 9.24 0 14 0 C14 0.33 14 0.66 14 1 C11.36 1.66 8.72 2.32 6 3 C6 2.34 6 1.68 6 1 C4.68 1 3.36 1 2 1 C2 6.28 2 11.56 2 17 C3.32 17 4.64 17 6 17 C6 13.37 6 9.74 6 6 C6.33 6 6.66 6 7 6 C7 9.96 7 13.92 7 18 C4.69 18 2.38 18 0 18 C-1.81643761 14.88610696 -2.2719038 12.59222291 -2.25 9 C-2.25515625 8.154375 -2.2603125 7.30875 -2.265625 6.4375 C-2 4 -2 4 0 0 Z " fill="#BD2571" transform="translate(35,172)"/>
<path d="M0 0 C0.33 0 0.66 0 1 0 C1 5.61 1 11.22 1 17 C2.65 17 4.3 17 6 17 C6 13.04 6 9.08 6 5 C7.32 4.67 8.64 4.34 10 4 C11 5 11 5 11.09765625 7.72265625 C11.08605469 8.82480469 11.07445312 9.92695312 11.0625 11.0625 C11.05347656 12.16722656 11.04445312 13.27195312 11.03515625 14.41015625 C11.02355469 15.26480469 11.01195312 16.11945313 11 17 C12.65 17 14.3 17 16 17 C16 17.33 16 17.66 16 18 C14.02 18 12.04 18 10 18 C9.67 14.04 9.34 10.08 9 6 C8.67 6 8.34 6 8 6 C7.67 9.96 7.34 13.92 7 18 C4.69 18 2.38 18 0 18 C-0.33 16.68 -0.66 15.36 -1 14 C-1.99 14.495 -1.99 14.495 -3 15 C-2.97679687 14.32453125 -2.95359375 13.6490625 -2.9296875 12.953125 C-2.90261719 11.61507812 -2.90261719 11.61507812 -2.875 10.25 C-2.84019531 8.92742187 -2.84019531 8.92742187 -2.8046875 7.578125 C-3.00860498 4.8864142 -3.63448279 3.30095026 -5 1 C-2 2 -2 2 -1 4 C-0.67 2.68 -0.34 1.36 0 0 Z " fill="#BA226E" transform="translate(216,56)"/>
<path d="M0 0 C4.455 0.99 4.455 0.99 9 2 C9.125 4.875 9.125 4.875 9 8 C7 10 7 10 3.375 10.125 C2.26125 10.08375 1.1475 10.0425 0 10 C0 6.7 0 3.4 0 0 Z " fill="#CA3480" transform="translate(258,179)"/>
<path d="M0 0 C3.63 0 7.26 0 11 0 C11 15.18 11 30.36 11 46 C10.67 46 10.34 46 10 46 C10 31.81 10 17.62 10 3 C7.69 3.33 5.38 3.66 3 4 C2.01 2.68 1.02 1.36 0 0 Z " fill="#3F0E26" transform="translate(279,185)"/>
<path d="M0 0 C1.32 0 2.64 0 4 0 C4.66 1.98 5.32 3.96 6 6 C7.32 6 8.64 6 10 6 C10.33 5.34 10.66 4.68 11 4 C12.32 4 13.64 4 15 4 C14.42655063 6.86724686 14.1385485 7.8614515 12 10 C5.03671706 10.67386609 5.03671706 10.67386609 1.5 8.375 C-0.37956836 5.39901677 -0.31424507 3.45669582 0 0 Z " fill="#CE3984" transform="translate(325,179)"/>
<path d="M0 0 C2.31 0 4.62 0 7 0 C7 0.99 7 1.98 7 3 C6.67 2.34 6.34 1.68 6 1 C4.68 1.33 3.36 1.66 2 2 C1.67 7.28 1.34 12.56 1 18 C2.65 18 4.3 18 6 18 C6 14.04 6 10.08 6 6 C7.32 5.67 8.64 5.34 10 5 C9.34 5.66 8.68 6.32 8 7 C7.53603307 9.89223503 7.53603307 9.89223503 7.375 13.125 C7.30023438 14.22070312 7.22546875 15.31640625 7.1484375 16.4453125 C7.09945312 17.28835938 7.05046875 18.13140625 7 19 C4.69 19 2.38 19 0 19 C-0.33 17.35 -0.66 15.7 -1 14 C-1.33 14 -1.66 14 -2 14 C-2.10957031 13.31292969 -2.21914062 12.62585938 -2.33203125 11.91796875 C-2.49058594 11.01691406 -2.64914063 10.11585938 -2.8125 9.1875 C-2.96332031 8.29417969 -3.11414063 7.40085937 -3.26953125 6.48046875 C-4.05395393 3.81678744 -4.88627799 2.74309678 -7 1 C-5.125 1.3125 -5.125 1.3125 -3 2 C-2.01 3.485 -2.01 3.485 -1 5 C-0.67 3.35 -0.34 1.7 0 0 Z " fill="#BB226F" transform="translate(216,297)"/>
<path d="M0 0 C1.485 0.99 1.485 0.99 3 2 C5.33199388 2.07905064 7.66832622 2.08798769 10 2 C10 4.64 10 7.28 10 10 C6.81863606 10.21691118 4.56030453 10.25066255 1.625 8.9375 C-0.78794727 6.06052441 -0.2734643 3.62340201 0 0 Z " fill="#161616" transform="translate(279,186)"/>
<path d="M0 0 C0.9075 0.680625 1.815 1.36125 2.75 2.0625 C2.110625 2.2275 1.47125 2.3925 0.8125 2.5625 C-1.41119241 3.844286 -1.41119241 3.844286 -1.73828125 5.9765625 C-1.9775978 7.99825155 -2.11893028 10.03091939 -2.25 12.0625 C-4.23 10.7425 -6.21 9.4225 -8.25 8.0625 C-7.92 5.0925 -7.59 2.1225 -7.25 -0.9375 C-3.25 -1.9375 -3.25 -1.9375 0 0 Z " fill="#1B1719" transform="translate(368.25,173.9375)"/>
<path d="M0 0 C0.66 0 1.32 0 2 0 C3.32 0 4.64 0 6 0 C6 1.65 6 3.3 6 5 C1.05 5 -3.9 5 -9 5 C-8.67 3.68 -8.34 2.36 -8 1 C-5.28148823 -0.35925589 -3.00882974 -0.06268395 0 0 Z " fill="#161616" transform="translate(288,173)"/>
<path d="M0 0 C3.875 1.75 3.875 1.75 5 4 C5.07033769 5.87379605 5.0843022 7.75001102 5.0625 9.625 C5.05347656 10.62789062 5.04445312 11.63078125 5.03515625 12.6640625 C5.02355469 13.43492187 5.01195312 14.20578125 5 15 C4.01 15.33 3.02 15.66 2 16 C0.24836544 12.22777911 -0.22490027 9.333361 -0.125 5.1875 C-0.10695312 4.21167969 -0.08890625 3.23585937 -0.0703125 2.23046875 C-0.04710937 1.49441406 -0.02390625 0.75835937 0 0 Z " fill="#CA3781" transform="translate(227,169)"/>
<path d="M0 0 C1.32 0 2.64 0 4 0 C4 5.28 4 10.56 4 16 C2.68 16 1.36 16 0 16 C0 10.72 0 5.44 0 0 Z " fill="#CF3A85" transform="translate(271,415)"/>
<path d="M0 0 C1.32 0 2.64 0 4 0 C4 5.28 4 10.56 4 16 C2.68 16 1.36 16 0 16 C0 10.72 0 5.44 0 0 Z " fill="#CE3984" transform="translate(452,299)"/>
<path d="M0 0 C1.32 0 2.64 0 4 0 C4 5.28 4 10.56 4 16 C2.68 16 1.36 16 0 16 C0 10.72 0 5.44 0 0 Z " fill="#CE3984" transform="translate(127,299)"/>
<path d="M0 0 C1.32 0 2.64 0 4 0 C4 5.28 4 10.56 4 16 C2.68 16 1.36 16 0 16 C0 10.72 0 5.44 0 0 Z " fill="#CF3A85" transform="translate(594,173)"/>
<path d="M0 0 C1.32 0 2.64 0 4 0 C4 5.28 4 10.56 4 16 C2.68 16 1.36 16 0 16 C0 10.72 0 5.44 0 0 Z " fill="#CE3984" transform="translate(452,57)"/>
<path d="M0 0 C1.32 0 2.64 0 4 0 C4 5.28 4 10.56 4 16 C2.68 16 1.36 16 0 16 C0 10.72 0 5.44 0 0 Z " fill="#CE3984" transform="translate(127,57)"/>
<path d="M0 0 C0.33 0 0.66 0 1 0 C1 4.62 1 9.24 1 14 C5.62 14 10.24 14 15 14 C15 17.63 15 21.26 15 25 C13.02 25 11.04 25 9 25 C9 23.35 9 21.7 9 20 C10.32 20 11.64 20 13 20 C13.33 18.35 13.66 16.7 14 15 C9.38 15 4.76 15 0 15 C0 10.05 0 5.1 0 0 Z " fill="#371225" transform="translate(289,153)"/>
<path d="M0 0 C1.98 0 3.96 0 6 0 C6.66 0.66 7.32 1.32 8 2 C7.01 2.66 6.02 3.32 5 4 C5 3.34 5 2.68 5 2 C3.68 2 2.36 2 1 2 C1 7.28 1 12.56 1 18 C2.32 18 3.64 18 5 18 C5 14.37 5 10.74 5 7 C5.66 6.67 6.32 6.34 7 6 C7.02686553 7.97909398 7.04633375 9.95828971 7.0625 11.9375 C7.07410156 13.03964844 7.08570313 14.14179687 7.09765625 15.27734375 C7 18 7 18 6 19 C4.02 19 2.04 19 0 19 C0 12.73 0 6.46 0 0 Z " fill="#BD2571" transform="translate(153,55)"/>
<path d="M0 0 C1.32 0 2.64 0 4 0 C4.1080023 2.10304477 4.18558987 4.20766909 4.25 6.3125 C4.29640625 7.48425781 4.3428125 8.65601563 4.390625 9.86328125 C4 13 4 13 1.984375 14.91796875 C1.32953125 15.27503906 0.6746875 15.63210937 0 16 C-0.1958009 14.08416353 -0.38132214 12.16727461 -0.5625 10.25 C-0.66691406 9.18265625 -0.77132813 8.1153125 -0.87890625 7.015625 C-0.98560074 4.35858796 -0.81930395 2.50039428 0 0 Z " fill="#CE3984" transform="translate(290,179)"/>
<path d="M0 0 C3.53571429 0.53571429 3.53571429 0.53571429 5 2 C5.04092937 4.33297433 5.04241723 6.66705225 5 9 C2.625 9.625 2.625 9.625 0 10 C-2 8 -2 8 -2.25 5 C-2 2 -2 2 0 0 Z " fill="#C22473" transform="translate(24,176)"/>
<path d="M0 0 C3.96 0 7.92 0 12 0 C11.67 1.65 11.34 3.3 11 5 C7.37 5 3.74 5 0 5 C0 3.35 0 1.7 0 0 Z " fill="#C42474" transform="translate(278,179)"/>
<path d="M0 0 C4.70588235 0.70588235 4.70588235 0.70588235 6 2 C5.71269945 4.33944736 5.38063221 6.6739143 5 9 C3.125 9.625 3.125 9.625 1 10 C-1 8 -1 8 -1.1875 4.4375 C-1 1 -1 1 0 0 Z " fill="#C22473" transform="translate(204,60)"/>
<path d="M0 0 C5.36842105 -0.35789474 5.36842105 -0.35789474 7.875 1.0625 C9.61973477 4.06732099 9.30835443 6.60810131 9 10 C8.34 10.66 7.68 11.32 7 12 C7 10.02 7 8.04 7 6 C4.69 6 2.38 6 0 6 C0 4.02 0 2.04 0 0 Z " fill="#C32373" transform="translate(400,297)"/>
<path d="M0 0 C4.875 0.875 4.875 0.875 6 2 C5.71269945 4.33944736 5.38063221 6.6739143 5 9 C3.125 9.625 3.125 9.625 1 10 C-1 8 -1 8 -1.1875 5 C-1 2 -1 2 0 0 Z " fill="#C22473" transform="translate(529,60)"/>
<path d="M0 0 C3.53571429 0.53571429 3.53571429 0.53571429 5 2 C4.71269945 4.33944736 4.38063221 6.6739143 4 9 C2.125 9.625 2.125 9.625 0 10 C-2 8 -2 8 -2.25 5 C-2 2 -2 2 0 0 Z " fill="#C22473" transform="translate(349,418)"/>
<path d="M0 0 C4.70588235 0.70588235 4.70588235 0.70588235 6 2 C5.71269945 4.33944736 5.38063221 6.6739143 5 9 C3.33388095 9.042721 1.66617115 9.04063832 0 9 C-1 8 -1 8 -1.125 4.5 C-1 1 -1 1 0 0 Z " fill="#BC2470" transform="translate(529,302)"/>
<path d="M0 0 C4.70588235 0.70588235 4.70588235 0.70588235 6 2 C6.1875 4.4375 6.1875 4.4375 6 7 C5.34 7.66 4.68 8.32 4 9 C1.375 8.625 1.375 8.625 -1 8 C-1.04241723 5.66705225 -1.04092937 3.33297433 -1 1 C-0.67 0.67 -0.34 0.34 0 0 Z " fill="#C22473" transform="translate(465,302)"/>
<path d="M0 0 C4.70588235 0.70588235 4.70588235 0.70588235 6 2 C6.1875 4.4375 6.1875 4.4375 6 7 C5.34 7.66 4.68 8.32 4 9 C1.375 8.625 1.375 8.625 -1 8 C-1.04241723 5.66705225 -1.04092937 3.33297433 -1 1 C-0.67 0.67 -0.34 0.34 0 0 Z " fill="#C22473" transform="translate(140,302)"/>
<path d="M0 0 C4.70588235 0.70588235 4.70588235 0.70588235 6 2 C6.1875 4.4375 6.1875 4.4375 6 7 C5.34 7.66 4.68 8.32 4 9 C1.375 8.625 1.375 8.625 -1 8 C-1.04241723 5.66705225 -1.04092937 3.33297433 -1 1 C-0.67 0.67 -0.34 0.34 0 0 Z " fill="#C22473" transform="translate(465,60)"/>
<path d="M0 0 C3.53571429 0.53571429 3.53571429 0.53571429 5 2 C4.71269945 4.33944736 4.38063221 6.6739143 4 9 C2.33388095 9.042721 0.66617115 9.04063832 -1 9 C-2 8 -2 8 -2.1875 5.0625 C-2 2 -2 2 0 0 Z " fill="#C22473" transform="translate(285,418)"/>
<path d="M0 0 C3.3 0 6.6 0 10 0 C10.33 1.65 10.66 3.3 11 5 C7.37 5 3.74 5 0 5 C0 3.35 0 1.7 0 0 Z " fill="#121212" transform="translate(421,303)"/>
<path d="M0 0 C1.32 0.66 2.64 1.32 4 2 C4 3.32 4 4.64 4 6 C-0.455 6.495 -0.455 6.495 -5 7 C-5 7.99 -5 8.98 -5 10 C-3.02 10.495 -3.02 10.495 -1 11 C-1.33 11.99 -1.66 12.98 -2 14 C-3.32 13.67 -4.64 13.34 -6 13 C-6 10.03 -6 7.06 -6 4 C-1.70600835 2.92650209 -0.80504787 3.20317184 3 5 C2.01 3.35 1.02 1.7 0 0 Z " fill="#BC2470" transform="translate(445,298)"/>
<path d="M0 0 C3.53571429 0.53571429 3.53571429 0.53571429 5 2 C5.1875 4.4375 5.1875 4.4375 5 7 C4.34 7.66 3.68 8.32 3 9 C0.375 8.625 0.375 8.625 -2 8 C-2.125 5.125 -2.125 5.125 -2 2 C-1.34 1.34 -0.68 0.68 0 0 Z " fill="#C22373" transform="translate(141,60)"/>
<path d="M0 0 C2.64 0 5.28 0 8 0 C8.38218767 1.65614657 8.71395102 3.32457024 9 5 C8 6 8 6 6.15234375 6.09765625 C4.1015625 6.06510417 2.05078125 6.03255208 0 6 C0 4.02 0 2.04 0 0 Z " fill="#B8206C" transform="translate(268,310)"/>
<path d="M0 0 C1.875 1.5 1.875 1.5 3 3 C1.783125 2.731875 0.56625 2.46375 -0.6875 2.1875 C-4.33198762 1.72870812 -4.76346984 1.82889308 -7.9375 4.125 C-10.13203543 6.76699842 -10.13203543 6.76699842 -10.5 9.5 C-11.21728883 13.08644413 -13.3420303 14.61464258 -16 17 C-16.66 16.67 -17.32 16.34 -18 16 C-17.51917969 15.44828125 -17.03835937 14.8965625 -16.54296875 14.328125 C-14.76045839 11.63856507 -14.52248591 9.94178582 -14.3125 6.75 C-14.21388672 5.41195312 -14.21388672 5.41195312 -14.11328125 4.046875 C-14.05720703 3.03367187 -14.05720703 3.03367187 -14 2 C-13.01 2.66 -12.02 3.32 -11 4 C-10.29875 3.34 -9.5975 2.68 -8.875 2 C-5.52201252 -0.33251303 -3.99800164 -0.60839155 0 0 Z " fill="#BD2470" transform="translate(102,55)"/>
<path d="M0 0 C1.98 0 3.96 0 6 0 C6.66 0.66 7.32 1.32 8 2 C7.01 2.66 6.02 3.32 5 4 C5 3.34 5 2.68 5 2 C3.68 2 2.36 2 1 2 C1 7.28 1 12.56 1 18 C2.32 18 3.64 18 5 18 C5 14.37 5 10.74 5 7 C5.66 6.67 6.32 6.34 7 6 C6.67 10.29 6.34 14.58 6 19 C4.02 19 2.04 19 0 19 C0 12.73 0 6.46 0 0 Z " fill="#BC2571" transform="translate(478,55)"/>
<path d="M0 0 C2.31 0 4.62 0 7 0 C7 0.99 7 1.98 7 3 C5.02 2.34 3.04 1.68 1 1 C1 6.61 1 12.22 1 18 C2.65 18 4.3 18 6 18 C6 14.04 6 10.08 6 6 C7.32 5.67 8.64 5.34 10 5 C9.34 5.66 8.68 6.32 8 7 C7.53603307 9.89223503 7.53603307 9.89223503 7.375 13.125 C7.30023437 14.22070312 7.22546875 15.31640625 7.1484375 16.4453125 C7.09945312 17.28835938 7.05046875 18.13140625 7 19 C4.69 19 2.38 19 0 19 C0 12.73 0 6.46 0 0 Z " fill="#BA216E" transform="translate(541,297)"/>
<path d="M0 0 C0.33 0 0.66 0 1 0 C1 5.28 1 10.56 1 16 C2.65 16 4.3 16 6 16 C6 12.37 6 8.74 6 5 C6.33 5 6.66 5 7 5 C7 8.96 7 12.92 7 17 C4.69 17 2.38 17 0 17 C-0.33 15.68 -0.66 14.36 -1 13 C-1.99 13.495 -1.99 13.495 -3 14 C-2.88512252 12.41590006 -2.75765492 10.83271037 -2.625 9.25 C-2.55539062 8.36828125 -2.48578125 7.4865625 -2.4140625 6.578125 C-2.00149945 4.00933618 -1.28839043 2.24158985 0 0 Z " fill="#BA226E" transform="translate(360,415)"/>
<path d="M0 0 C1.98 0 3.96 0 6 0 C6.04241723 2.33294775 6.04092937 4.66702567 6 7 C5 8 5 8 2.4375 8.0625 C1.633125 8.041875 0.82875 8.02125 0 8 C0 5.36 0 2.72 0 0 Z " fill="#000000" transform="translate(400,303)"/>
<path d="M0 0 C4 2 4 2 5 4 C4.83219837 6.69565202 4.38844355 9.32405554 4 12 C2.68 12 1.36 12 0 12 C0 8.04 0 4.08 0 0 Z " fill="#1F1A1D" transform="translate(371,177)"/>
<path d="M0 0 C1.32 0.33 2.64 0.66 4 1 C3.67 3.97 3.34 6.94 3 10 C-1 9 -1 9 -2 8 C-2.1875 5.0625 -2.1875 5.0625 -2 2 C-1.34 1.34 -0.68 0.68 0 0 Z " fill="#010101" transform="translate(349,176)"/>
<path d="M0 0 C1.98 0 3.96 0 6 0 C6 5.28 6 10.56 6 16 C5.34 16 4.68 16 4 16 C3.67 12.04 3.34 8.08 3 4 C2.01 3.67 1.02 3.34 0 3 C0 2.01 0 1.02 0 0 Z " fill="#CC3782" transform="translate(304,173)"/>
<path d="M0 0 C2.625 0.375 2.625 0.375 5 1 C5.625 2.875 5.625 2.875 6 5 C5.34 5.66 4.68 6.32 4 7 C1.375 6.625 1.375 6.625 -1 6 C-1.625 4.125 -1.625 4.125 -2 2 C-1.34 1.34 -0.68 0.68 0 0 Z " fill="#BD2471" transform="translate(498,67)"/>
<path d="M0 0 C2.31 0 4.62 0 7 0 C7 1.98 7 3.96 7 6 C4.69 6 2.38 6 0 6 C0 4.02 0 2.04 0 0 Z " fill="#000000" transform="translate(241,303)"/>
<path d="M0 0 C1.32 0 2.64 0 4 0 C4 1.98 4 3.96 4 6 C6.31 6 8.62 6 11 6 C11 4.02 11 2.04 11 0 C11.33 0 11.66 0 12 0 C12 2.31 12 4.62 12 7 C8.04 7 4.08 7 0 7 C0 4.69 0 2.38 0 0 Z " fill="#28151E" transform="translate(237,303)"/>
<path d="M0 0 C0 7.26 0 14.52 0 22 C-1.98 22.99 -1.98 22.99 -4 24 C-3.34 23.01 -2.68 22.02 -2 21 C-1.63566627 18.87662229 -1.63566627 18.87662229 -1.5859375 16.55078125 C-1.54726562 15.70322266 -1.50859375 14.85566406 -1.46875 13.98242188 C-1.42234375 12.66081055 -1.42234375 12.66081055 -1.375 11.3125 C-1.31699219 9.97348633 -1.31699219 9.97348633 -1.2578125 8.60742188 C-1.16359782 6.4051538 -1.07798412 4.20289278 -1 2 C-2.32 2 -3.64 2 -5 2 C-5.33 2.66 -5.66 3.32 -6 4 C-6.66 3.01 -7.32 2.02 -8 1 C-6 0 -6 0 0 0 Z " fill="#BB2470" transform="translate(151,297)"/>
<path d="M0 0 C1.375 2.0625 1.375 2.0625 2 4 C0.783125 3.814375 -0.43375 3.62875 -1.6875 3.4375 C-5.02977939 3.01006818 -7.71968417 3.07741117 -11 4 C-10.1875 2.0625 -10.1875 2.0625 -9 0 C-5.44712603 -1.18429132 -3.58589143 -0.99184231 0 0 Z " fill="#CE3984" transform="translate(446,299)"/>
<path d="M0 0 C1.32 0.66 2.64 1.32 4 2 C4 5.3 4 8.6 4 12 C1.25722422 8.80009492 -0.6302836 5.99500618 -2 2 C-1.34 1.34 -0.68 0.68 0 0 Z " fill="#BC2470" transform="translate(377,176)"/>
<path d="M0 0 C0 1.65 0 3.3 0 5 C-3.3 5 -6.6 5 -10 5 C-7.2178219 -0.5643562 -5.86594058 -0.12752045 0 0 Z " fill="#141414" transform="translate(335,173)"/>
<path d="M0 0 C1.32 0 2.64 0 4 0 C4.33 0.66 4.66 1.32 5 2 C8.02934491 2.65772428 8.02934491 2.65772428 11 3 C11 3.66 11 4.32 11 5 C7.7 5.66 4.4 6.32 1 7 C0.67 4.69 0.34 2.38 0 0 Z " fill="#C72375" transform="translate(511,61)"/>
<path d="M0 0 C0.66 0.33 1.32 0.66 2 1 C1.2884375 1.804375 1.2884375 1.804375 0.5625 2.625 C-1.28186076 5.42842836 -1.62456847 7.69620258 -2 11 C-2.66 11 -3.32 11 -4 11 C-5.38232443 12.62626404 -6.71937515 14.2925002 -8 16 C-8.66 15.67 -9.32 15.34 -10 15 C-9.360625 14.34 -8.72125 13.68 -8.0625 13 C-5.41087498 9.14309088 -5.31332879 6.62159967 -5 2 C-4.360625 1.855625 -3.72125 1.71125 -3.0625 1.5625 C-1.02454854 1.18992819 -1.02454854 1.18992819 0 0 Z " fill="#BD2471" transform="translate(237,415)"/>
<path d="M0 0 C1.98 0.495 1.98 0.495 4 1 C4 1.66 4 2.32 4 3 C5.98 3 7.96 3 10 3 C10 3.66 10 4.32 10 5 C6.7 5.66 3.4 6.32 0 7 C-1 2 -1 2 0 0 Z " fill="#C82376" transform="translate(512,303)"/>
<path d="M0 0 C3.96 0 7.92 0 12 0 C12 6.93 12 13.86 12 21 C11.67 21 11.34 21 11 21 C11 14.73 11 8.46 11 2 C9.68 2 8.36 2 7 2 C6.67 2.66 6.34 3.32 6 4 C4.02 3.01 2.04 2.02 0 1 C0 0.67 0 0.34 0 0 Z " fill="#BB2470" transform="translate(464,55)"/>
<path d="M0 0 C3.96 0 7.92 0 12 0 C12 6.93 12 13.86 12 21 C11.67 21 11.34 21 11 21 C11 14.73 11 8.46 11 2 C9.68 2 8.36 2 7 2 C6.67 2.66 6.34 3.32 6 4 C4.02 3.01 2.04 2.02 0 1 C0 0.67 0 0.34 0 0 Z " fill="#BB2470" transform="translate(139,55)"/>
<path d="M0 0 C1.32 0 2.64 0 4 0 C4 3.3 4 6.6 4 10 C2.68 10 1.36 10 0 10 C0 6.7 0 3.4 0 0 Z " fill="#CF3A85" transform="translate(298,179)"/>
<path d="M0 0 C1.32 0 2.64 0 4 0 C4 3.3 4 6.6 4 10 C2.68 10 1.36 10 0 10 C0 6.7 0 3.4 0 0 Z " fill="#CF3A85" transform="translate(271,179)"/>
<path d="M0 0 C2.475 0.495 2.475 0.495 5 1 C4.75 4.375 4.75 4.375 4 8 C2.02 8.99 2.02 8.99 0 10 C0 6.7 0 3.4 0 0 Z " fill="#C93780" transform="translate(353,179)"/>
<path d="M0 0 C0.33 0 0.66 0 1 0 C1.042721 1.66611905 1.04063832 3.33382885 1 5 C0 6 0 6 -2.25 6.125 C-4.93525914 6.00294277 -7.38358203 5.59803839 -10 5 C-10.33 5.66 -10.66 6.32 -11 7 C-11 6.01 -11 5.02 -11 4 C-7.54941314 1.69960876 -5.05904498 1.5261725 -1 1 C-0.67 0.67 -0.34 0.34 0 0 Z " fill="#BB236F" transform="translate(470,70)"/>
<path d="M0 0 C0.33 0 0.66 0 1 0 C1.042721 1.66611905 1.04063832 3.33382885 1 5 C0 6 0 6 -2.25 6.125 C-4.93525914 6.00294277 -7.38358203 5.59803839 -10 5 C-10.33 5.66 -10.66 6.32 -11 7 C-11 6.01 -11 5.02 -11 4 C-7.54941314 1.69960876 -5.05904498 1.5261725 -1 1 C-0.67 0.67 -0.34 0.34 0 0 Z " fill="#BA226E" transform="translate(145,70)"/>
<path d="M0 0 C0.99 0.33 1.98 0.66 3 1 C3 1.66 3 2.32 3 3 C4.98 3 6.96 3 9 3 C9 3.66 9 4.32 9 5 C7.35 5.33 5.7 5.66 4 6 C4 6.33 4 6.66 4 7 C2.35 7 0.7 7 -1 7 C-1.04254356 5.00045254 -1.04080783 2.99958364 -1 1 C-0.67 0.67 -0.34 0.34 0 0 Z " fill="#C82376" transform="translate(188,61)"/>
<path d="M0 0 C0.66 0 1.32 0 2 0 C2.33 0.66 2.66 1.32 3 2 C6.02934491 2.65772428 6.02934491 2.65772428 9 3 C9 3.66 9 4.32 9 5 C8.030625 5.12375 7.06125 5.2475 6.0625 5.375 C4.5465625 5.684375 4.5465625 5.684375 3 6 C2.67 6.66 2.34 7.32 2 8 C1.01 7.67 0.02 7.34 -1 7 C-1.04254356 5.00045254 -1.04080783 2.99958364 -1 1 C-0.67 0.67 -0.34 0.34 0 0 Z " fill="#C92376" transform="translate(332,419)"/>
<path d="M0 0 C1.32 0.33 2.64 0.66 4 1 C4 1.66 4 2.32 4 3 C5.98 3 7.96 3 10 3 C10 3.66 10 4.32 10 5 C6.7 5.66 3.4 6.32 0 7 C0 4.69 0 2.38 0 0 Z " fill="#C82376" transform="translate(187,303)"/>
<path d="M0 0 C0.99 0.33 1.98 0.66 3 1 C2.67 2.32 2.34 3.64 2 5 C1.34 3.35 0.68 1.7 0 0 Z M-6 3 C-4.68 3 -3.36 3 -2 3 C-2 3.66 -2 4.32 -2 5 C-1.071875 5.1546875 -1.071875 5.1546875 -0.125 5.3125 C2 6 2 6 4 9 C3.625 11.1875 3.625 11.1875 3 13 C2.67 11.35 2.34 9.7 2 8 C-0.64 7.34 -3.28 6.68 -6 6 C-6 5.01 -6 4.02 -6 3 Z " fill="#BC2370" transform="translate(588,173)"/>
<path d="M0 0 C0.78375 0.185625 1.5675 0.37125 2.375 0.5625 C4.97089775 1.25962266 4.97089775 1.25962266 7 0 C7 1.32 7 2.64 7 4 C10.3 4 13.6 4 17 4 C17 4.33 17 4.66 17 5 C11.39 5 5.78 5 0 5 C0 3.35 0 1.7 0 0 Z " fill="#191316" transform="translate(421,310)"/>
<path d="M0 0 C0.66 0 1.32 0 2 0 C2.99 3.63 3.98 7.26 5 11 C3.35 11 1.7 11 0 11 C0 7.37 0 3.74 0 0 Z " fill="#C73880" transform="translate(214,178)"/>
<path d="M0 0 C3.875 1.75 3.875 1.75 5 4 C5.039992 5.99960012 5.04346799 8.00047242 5 10 C5.66 10 6.32 10 7 10 C7 11.98 7 13.96 7 16 C6.34 16 5.68 16 5 16 C3.36323743 17.9600281 3.36323743 17.9600281 2 20 C1.34 19.67 0.68 19.34 0 19 C0.48726563 18.44183594 0.97453125 17.88367188 1.4765625 17.30859375 C4.01629297 13.45992526 3.56190207 9.45919723 3 5 C1.68772566 1.96534298 1.68772566 1.96534298 0 0 Z " fill="#BC2370" transform="translate(409,52)"/>
<path d="M0 0 C0 6.93 0 13.86 0 21 C-0.33 21 -0.66 21 -1 21 C-1 14.73 -1 8.46 -1 2 C-2.32 2 -3.64 2 -5 2 C-5.33 2.66 -5.66 3.32 -6 4 C-6.66 3.01 -7.32 2.02 -8 1 C-6 0 -6 0 0 0 Z " fill="#BB2570" transform="translate(476,297)"/>
<path d="M0 0 C1.125 3.75 1.125 3.75 0 6 C-3.85645121 6.22036864 -6.49223216 5.60355101 -10 4 C-7.24072656 1.24072656 -4.78845948 1.48216757 -1 1 C-0.67 0.67 -0.34 0.34 0 0 Z " fill="#BD2471" transform="translate(145,312)"/>
<path d="M0 0 C0.625 1.875 0.625 1.875 1 4 C0.34 4.66 -0.32 5.32 -1 6 C-4.4104584 5.64100438 -6.98653684 4.5644362 -10 3 C-9.04287109 2.80083984 -9.04287109 2.80083984 -8.06640625 2.59765625 C-7.24011719 2.42105469 -6.41382813 2.24445313 -5.5625 2.0625 C-4.73878906 1.88847656 -3.91507812 1.71445312 -3.06640625 1.53515625 C-1.02338796 1.19247006 -1.02338796 1.19247006 0 0 Z " fill="#BD2471" transform="translate(470,312)"/>
<path d="M0 0 C1.485 0.99 1.485 0.99 3 2 C5.33199388 2.07905064 7.66832622 2.08798769 10 2 C10 3.32 10 4.64 10 6 C6.7 5.67 3.4 5.34 0 5 C0 3.35 0 1.7 0 0 Z " fill="#010101" transform="translate(279,186)"/>
<path d="M0 0 C3.3 0 6.6 0 10 0 C10 0.99 10 1.98 10 3 C7.69 3.33 5.38 3.66 3 4 C2.01 2.68 1.02 1.36 0 0 Z " fill="#171717" transform="translate(279,185)"/>
<path d="M0 0 C0 1.65 0 3.3 0 5 C-3.63 5 -7.26 5 -11 5 C-11 4.67 -11 4.34 -11 4 C-9.35 4 -7.7 4 -6 4 C-6 3.01 -6 2.02 -6 1 C-1.125 0 -1.125 0 0 0 Z " fill="#191718" transform="translate(406,310)"/>
<path d="M0 0 C0.66 0 1.32 0 2 0 C1.67 1.65 1.34 3.3 1 5 C-1.3125 5.25 -1.3125 5.25 -4 5 C-5.8125 3 -5.8125 3 -7 1 C-5.5459375 1.0309375 -5.5459375 1.0309375 -4.0625 1.0625 C-1.12534105 1.35618499 -1.12534105 1.35618499 0 0 Z " fill="#BD2471" transform="translate(288,429)"/>
<path d="M0 0 C1.98 0 3.96 0 6 0 C6.66 1.32 7.32 2.64 8 4 C5.36 4 2.72 4 0 4 C0 2.68 0 1.36 0 0 Z " fill="#C22B77" transform="translate(428,310)"/>
<path d="M0 0 C1.65 0 3.3 0 5 0 C6.125 6.75 6.125 6.75 5 9 C4.34 9 3.68 9 3 9 C3 6.36 3 3.72 3 1 C2.01 0.67 1.02 0.34 0 0 Z " fill="#C12473" transform="translate(204,302)"/>
<path d="M0 0 C0.99 0 1.98 0 3 0 C3 2.31 3 4.62 3 7 C1.68 6.67 0.36 6.34 -1 6 C-1.042721 4.33388095 -1.04063832 2.66617115 -1 1 C-0.67 0.67 -0.34 0.34 0 0 Z " fill="#C92476" transform="translate(530,303)"/>
<path d="M0 0 C2.31 0 4.62 0 7 0 C6.67 1.32 6.34 2.64 6 4 C4.35 4 2.7 4 1 4 C0.67 2.68 0.34 1.36 0 0 Z " fill="#BE2471" transform="translate(240,182)"/>
<path d="M0 0 C0.66 0 1.32 0 2 0 C3.76462683 3.08809695 4 4.23312136 4 8 C2.68 8 1.36 8 0 8 C0 5.36 0 2.72 0 0 Z " fill="#211A1D" transform="translate(247,174)"/>
<path d="M0 0 C1.32 0 2.64 0 4 0 C3.52433594 0.81210938 3.52433594 0.81210938 3.0390625 1.640625 C1.81692026 4.4157149 1.59056564 6.73208098 1.375 9.75 C1.30023438 10.73484375 1.22546875 11.7196875 1.1484375 12.734375 C1.09945312 13.48203125 1.05046875 14.2296875 1 15 C0.34 14.67 -0.32 14.34 -1 14 C-0.67 9.38 -0.34 4.76 0 0 Z " fill="#1E0F16" transform="translate(247,184)"/>
<path d="M0 0 C1.65 0 3.3 0 5 0 C5 1.65 5 3.3 5 5 C3.35 5 1.7 5 0 5 C0 3.35 0 1.7 0 0 Z " fill="#CD3883" transform="translate(278,179)"/>
<path d="M0 0 C2.54926402 1.27463201 2.86801636 2.43417043 4 5 C5 8 5 8 4.1875 10.125 C3 12 3 12 1 13 C1.020625 11.783125 1.04125 10.56625 1.0625 9.3125 C1.06824116 6.08022678 0.78766315 3.15065259 0 0 Z " fill="#BC2370" transform="translate(554,171)"/>
<path d="M0 0 C2.97 0 5.94 0 9 0 C7.25 2.0625 7.25 2.0625 5 4 C2.8125 3.9375 2.8125 3.9375 1 3 C0.67 2.01 0.34 1.02 0 0 Z " fill="#010101" transform="translate(421,308)"/>
<path d="M0 0 C1.9375 0.75 1.9375 0.75 4 2 C4.75 4.125 4.75 4.125 5 6 C3.35 6 1.7 6 0 6 C0 4.02 0 2.04 0 0 Z " fill="#CA3681" transform="translate(361,183)"/>
<path d="M0 0 C1.74627478 2.61941217 2.38722388 4.03824877 3 7 C1.35 7 -0.3 7 -2 7 C-1.125 1.125 -1.125 1.125 0 0 Z " fill="#9F1D5E" transform="translate(174,314)"/>
<path d="M0 0 C0.33 0 0.66 0 1 0 C1 1.65 1 3.3 1 5 C2.98 5.495 2.98 5.495 5 6 C4.67 6.99 4.34 7.98 4 9 C2.68 8.67 1.36 8.34 0 8 C0 5.36 0 2.72 0 0 Z " fill="#A62365" transform="translate(439,303)"/>
<path d="M0 0 C0.66 0 1.32 0 2 0 C2 2.64 2 5.28 2 8 C1.34 8 0.68 8 0 8 C-0.38063221 5.6739143 -0.71269945 3.33944736 -1 1 C-0.67 0.67 -0.34 0.34 0 0 Z " fill="#000000" transform="translate(204,303)"/>
<path d="M0 0 C1.32 0 2.64 0 4 0 C4 1.65 4 3.3 4 5 C2.68 5 1.36 5 0 5 C0 3.35 0 1.7 0 0 Z " fill="#1A1A1A" transform="translate(271,173)"/>
<path d="M0 0 C0.99 0 1.98 0 3 0 C3 1.65 3 3.3 3 5 C1.68 5 0.36 5 -1 5 C-1.33 4.01 -1.66 3.02 -2 2 C-1.34 1.34 -0.68 0.68 0 0 Z " fill="#1A1719" transform="translate(174,310)"/>
<path d="M0 0 C0 1.65 0 3.3 0 5 C-0.99 5.495 -0.99 5.495 -2 6 C-4.625 4.625 -4.625 4.625 -7 3 C-7 2.67 -7 2.34 -7 2 C-1.125 0 -1.125 0 0 0 Z " fill="#C12875" transform="translate(471,70)"/>
<path d="M0 0 C0 1.65 0 3.3 0 5 C-0.99 5.495 -0.99 5.495 -2 6 C-4.625 4.625 -4.625 4.625 -7 3 C-7 2.67 -7 2.34 -7 2 C-1.125 0 -1.125 0 0 0 Z " fill="#C12875" transform="translate(146,70)"/>
<path d="M0 0 C0.99 0.33 1.98 0.66 3 1 C3 2.32 3 3.64 3 5 C1.68 5 0.36 5 -1 5 C-0.67 3.35 -0.34 1.7 0 0 Z " fill="#CD3883" transform="translate(318,426)"/>
<path d="M0 0 C0.99 0.33 1.98 0.66 3 1 C3 2.32 3 3.64 3 5 C1.68 5 0.36 5 -1 5 C-0.67 3.35 -0.34 1.7 0 0 Z " fill="#181818" transform="translate(318,184)"/>
<path d="M0 0 C1.65 0 3.3 0 5 0 C5 0.99 5 1.98 5 3 C3.35 3 1.7 3 0 3 C0 2.01 0 1.02 0 0 Z " fill="#C22574" transform="translate(241,425)"/>
<path d="M0 0 C1.65 0 3.3 0 5 0 C5 0.99 5 1.98 5 3 C3.02 3 1.04 3 -1 3 C-0.67 2.01 -0.34 1.02 0 0 Z " fill="#BC2370" transform="translate(97,302)"/>
<path d="M0 0 C0.99 0.33 1.98 0.66 3 1 C3 2.32 3 3.64 3 5 C1.68 4.67 0.36 4.34 -1 4 C-0.67 2.68 -0.34 1.36 0 0 Z " fill="#CD3883" transform="translate(499,68)"/>
<path d="M0 0 C0.99 0.33 1.98 0.66 3 1 C3 2.32 3 3.64 3 5 C1.68 4.67 0.36 4.34 -1 4 C-0.67 2.68 -0.34 1.36 0 0 Z " fill="#CE3984" transform="translate(174,68)"/>
<path d="M0 0 C1.65 0 3.3 0 5 0 C5 0.99 5 1.98 5 3 C3.02 3 1.04 3 -1 3 C-0.67 2.01 -0.34 1.02 0 0 Z " fill="#BB226F" transform="translate(97,60)"/>
</svg>
